<?xml version="1.0" standalone="no"?>
<!DOCTYPE svg PUBLIC "-//W3C//DTD SVG 1.1//EN" "http://www.w3.org/Graphics/SVG/1.1/DTD/svg11.dtd" >
<svg xmlns="http://www.w3.org/2000/svg">
<metadata></metadata>
<defs>
<font id="webfontregular" horiz-adv-x="1024" >
<font-face units-per-em="2048" ascent="1638" descent="-410" />
<missing-glyph horiz-adv-x="561" />
<glyph horiz-adv-x="2048" />
<glyph horiz-adv-x="2048" />
<glyph unicode="&#xd;" horiz-adv-x="561" />
<glyph unicode=" "  horiz-adv-x="561" />
<glyph unicode="&#x09;" horiz-adv-x="561" />
<glyph unicode="&#xa0;" horiz-adv-x="561" />
<glyph unicode="!" horiz-adv-x="598" d="M88 188q0 90 62 151.5t151 61.5q90 0 152.5 -62t62.5 -151q0 -87 -64 -151t-151 -64q-90 0 -151.5 62.5t-61.5 152.5zM111 1323q0 182 16.5 238.5t83.5 56.5q205 0 261 -8q63 -6 63 -27l-78 -226q-78 -221 -78 -466q0 -159 16 -296l2 -24q0 -14 -12 -22q-12 -6 -43 -6 h-25q-60 0 -78 12q-14 11 -32 70q-41 142 -68.5 336t-27.5 362z" />
<glyph unicode="&#x22;" horiz-adv-x="643" d="M86 879v557h164v-557h-164zM395 879v557h164v-557h-164z" />
<glyph unicode="#" horiz-adv-x="1575" d="M70 428l61 172h297l90 252h-315l61 172h316l155 436h191l-154 -436h250l156 436h190l-154 -436h291l-59 -172h-293l-90 -252h309l-61 -172h-307l-156 -434h-191l156 434h-252l-158 -434h-190l156 434h-299zM618 598h256l91 254h-256z" />
<glyph unicode="$" horiz-adv-x="1124" d="M82 131l1 14l5 15l64 200q8 24 16.5 32.5t24.5 10.5q22 0 111 -62q45 -31 88 -48.5t81 -17.5l23 399q-198 62 -291.5 170t-93.5 274q0 191 116 304q59 58 141 91t181 33l2 80q0 18 13.5 24.5t49.5 6.5h35q34 0 42.5 -5.5t8.5 -23.5l-2 -92q119 -27 192 -62.5t73 -64.5 l-3 -22q-2 -12 -5 -18l-60 -153q-3 -9 -7.5 -13.5t-13.5 -6.5l-62 37q-30 18 -62 32.5t-70 26.5l-23 -383q199 -63 297.5 -184t98.5 -297q0 -204 -112 -317.5t-335 -137.5v-116q0 -22 -9 -30q-11 -7 -48 -7h-14h-29q-32 0 -43 9q-4 5 -6 14t-2 26v12l2 96q-157 29 -266 74.5 t-109 79.5zM334 1133q0 -69 44 -114t132 -69l20 355q-45 0 -80 -13.5t-64 -39.5q-52 -46 -52 -119zM625 271q92 0 142 45.5t50 127.5q0 73 -45 122t-129 67z" />
<glyph unicode="%" horiz-adv-x="1802" d="M168 1122q0 189 83 303.5t216 114.5q137 0 217 -106t80 -291q0 -193 -81.5 -303.5t-223.5 -110.5q-134 0 -212.5 105.5t-78.5 287.5zM326 1157q0 -113 35 -170t104 -57t105 54t36 161q0 120 -33.5 179.5t-103.5 59.5q-68 0 -105.5 -57.5t-37.5 -169.5zM565 25l3 26l10 31 l497 1378q19 54 41 74q11 10 29 15t47 5q51 0 80 -6q27 -4 28 -16l-3 -17q-2 -11 -7 -22l-594 -1434q-19 -46 -38 -63q-19 -19 -48 -19q-16 0 -30.5 14.5t-14.5 33.5zM1044 393q0 188 83 302t216 114q138 0 218.5 -106t80.5 -291q0 -190 -81.5 -301t-223.5 -111 q-134 0 -213.5 105t-79.5 288zM1202 424q0 -114 35 -169.5t104 -55.5q68 0 105 54t37 159q0 122 -34.5 181.5t-102.5 59.5q-69 0 -106.5 -59.5t-37.5 -169.5z" />
<glyph unicode="&#x26;" horiz-adv-x="1726" d="M96 356q0 81 31.5 159t97.5 155q34 40 110.5 106t76.5 107q0 28 -58.5 132t-58.5 195q0 159 126 267t320 108q169 0 268 -83t99 -224q0 -36 -7 -70t-22 -66q-28 -65 -98 -141q-21 -23 -70 -71q-80 -78 -80 -115q0 -58 45.5 -127.5t79.5 -69.5q35 0 101 72q35 39 57 60 q95 90 170.5 127.5t157.5 37.5q100 0 162.5 -54t62.5 -144q0 -45 -21 -82t-42 -37q-5 0 -62 30.5t-110 30.5q-40 0 -86 -23q-22 -10 -45.5 -26.5t-47.5 -38.5q-57 -51 -87.5 -93t-30.5 -70q0 -39 46.5 -66t116.5 -27q89 0 169 61l18 11q6 0 12 -21.5t6 -54.5 q0 -142 -82 -240t-207 -98q-99 0 -196.5 72t-102.5 72l-139 -72q-138 -72 -293 -72q-173 0 -280 105.5t-107 277.5zM385 418q0 -86 51 -141.5t135 -55.5q74 0 132.5 36.5t58.5 78.5q0 14 -5 28.5t-14 26.5l-153 225l-18 19q-9 6 -21 6q-58 0 -112 -71t-54 -152zM571 1253 q0 -74 45 -145.5t91 -71.5q42 0 98.5 75.5t56.5 152.5q0 54 -39.5 91.5t-101.5 37.5q-65 0 -107.5 -39.5t-42.5 -100.5z" />
<glyph unicode="'" horiz-adv-x="334" d="M86 879v557h164v-557h-164z" />
<glyph unicode="(" horiz-adv-x="678" d="M41 653q0 439 121.5 685.5t337.5 246.5q33 0 44 -1.5t27.5 -8t30.5 -27.5q19 -25 42.5 -94.5t23.5 -103.5q0 -21 -3.5 -31t-13.5 -10l-33 2l-26 2q-171 0 -274 -206t-103 -550q0 -278 66 -545l10 -47q0 -19 -48.5 -48.5t-70.5 -29.5q-21 0 -35 26.5t-35 125.5 q-29 150 -45 302.5t-16 311.5z" />
<glyph unicode=")" horiz-adv-x="678" d="M-45 125q0 21 4.5 31.5t13.5 9.5l34 -2l26 -2q168 0 271.5 205t103.5 548q0 139 -16 276t-49 271l-9 47q0 20 48.5 49t70.5 29q21 0 35.5 -26.5t33.5 -124.5q30 -152 45 -300t15 -317q0 -440 -120.5 -685t-336.5 -245q-44 0 -65 8t-38 30.5t-42 92.5t-25 105z" />
<glyph unicode="*" d="M104 1227l2 4l3 6l47 149l6 12q3 3 10 3l21 -9l17 -9l212 -111l10 -5l8 -1q12 0 15.5 3.5t5.5 18.5l-2 19l-37 229l-1 6l-3 27q0 8 5 12l17 4h156q12 0 15 -3t5 -13l-1 -8l-5 -25l-45 -234l-2 -7v-9q0 -10 5 -15q5 -3 14 -5l6 2l8 4l218 109l5 3q23 13 31 13q6 0 10.5 -4 t7.5 -12l47 -148l3 -12q0 -5 -10 -11l-36 -8l-246 -31q-13 0 -20.5 -4.5t-9.5 -13.5q3 -8 5 -12l11 -15l174 -170l7 -6q18 -18 18 -28l-3 -9l-7 -8l-129 -88l-6 -5l-4 -3q-12 0 -25 28l-6 13l-101 220l-12 18q-5 6 -10 6q-11 0 -22 -20l-3 -5l-110 -211l-4 -7 q-14 -30 -27 -30l-6 1l-8 5l-126 93l-8 7l-1 7q0 10 23 30l5 5l182 161q12 9 16 16l5 11q0 8 -8 12q-5 4 -21 7l-243 28q-28 3 -38 8.5t-10 14.5z" />
<glyph unicode="+" horiz-adv-x="1706" d="M254 528v166h514v527h170v-527h514v-166h-514v-528h-170v528h-514z" />
<glyph unicode="," horiz-adv-x="561" d="M16 172l2 7l9 7l233 187q9 7 20.5 11.5t28.5 6.5q65 0 120.5 -69t55.5 -162q0 -129 -112.5 -220.5t-257.5 -91.5l-3 2l-1 3l8 15q51 83 51 150q0 41 -15.5 66t-58.5 49q-11 6 -21 10t-34 10.5t-25 18.5z" />
<glyph unicode="-" horiz-adv-x="680" d="M70 504q0 33 17 86.5t42 95.5q12 17 26 26q16 7 38 7h348q29 0 41 -6q10 -7 10 -27q0 -41 -19 -104t-38 -88q-10 -15 -24 -21q-8 -2 -17 -3t-29 -1h-342q-32 0 -42.5 6.5t-10.5 28.5z" />
<glyph unicode="." horiz-adv-x="561" d="M68 174q0 90 62 152.5t151 62.5q87 0 150 -62.5t63 -152.5q0 -87 -63 -150t-150 -63q-90 0 -151.5 61t-61.5 152z" />
<glyph unicode="/" horiz-adv-x="563" d="M-4 -4l1 17l3 14l434 1484q9 27 21.5 37.5t36.5 10.5h69q13 0 22 -6t9 -15l-1 -19l-3 -14l-434 -1484q-9 -26 -22 -38q-13 -10 -36 -10h-69q-13 0 -21 6t-10 17z" />
<glyph unicode="0" horiz-adv-x="1124" d="M88 721q0 397 127.5 612t359.5 215q215 0 341 -198.5t126 -546.5q0 -404 -119 -613.5t-348 -209.5q-228 0 -357.5 194.5t-129.5 546.5zM352 795q0 -216 57.5 -337.5t161.5 -121.5q102 0 154.5 128t52.5 374q0 214 -54.5 334t-152.5 120q-101 0 -160 -131t-59 -366z" />
<glyph unicode="1" horiz-adv-x="1124" d="M303 1395q0 48 109.5 99.5t226.5 51.5q58 0 84.5 -15.5t26.5 -51.5q0 -14 -4 -36t-7 -37q-49 -297 -49 -575q0 -356 60 -718l10 -68v-12q0 -20 -7 -26.5t-26 -6.5h-260q-30 0 -41 18q-8 19 -8 105v27q0 98 2.5 187.5t5.5 205t3 198.5l11 418q0 92 -67.5 156t-69.5 80z " />
<glyph unicode="2" horiz-adv-x="1124" d="M88 106v19q0 122 54 240t165 237q83 86 221 200l56 46q88 76 117.5 127.5t29.5 116.5q0 82 -53.5 138t-132.5 56q-67 0 -128.5 -45t-109.5 -129l-29 -56q-24 -50 -40 -50q-9 0 -14.5 3t-12.5 13l-59 106l-20 32q-30 47 -30 75t24.5 71.5t66.5 90.5q65 72 158 110.5 t204 38.5q198 0 322 -115t124 -298q0 -251 -420 -572l-40 -31q-79 -61 -115.5 -104t-36.5 -74q0 -9 10 -14.5t31 -5.5q10 0 24.5 3t24.5 5q42 8 72 8q49 0 126 -21q38 -10 63 -15t40 -5q66 0 98.5 34.5t32.5 104.5q0 7 -0.5 17.5t-4.5 26.5l-5 26l2 2q27 0 73 -80t46 -170 q0 -126 -78.5 -204t-206.5 -78q-26 0 -60.5 5t-95.5 18q-110 24 -173 24q-70 0 -154 -25.5t-98 -25.5q-41 0 -55 18q-13 20 -13 106z" />
<glyph unicode="3" horiz-adv-x="1124" d="M76 186q0 11 5 24t8.5 20t12.5 17l152 195q6 9 14 13l13 6q5 0 28 -24q94 -103 213 -103q76 0 125 50t49 126q0 82 -40 138t-124 87q-49 18 -149 28t-100 48q0 34 97 124l83 79q108 105 147 155q43 55 43 82q0 18 -28 30.5t-74 12.5q-125 0 -274 -52q-42 -15 -54 -15 q-15 0 -22.5 6.5t-12.5 24.5l-36 194l-1 10l-1 17q0 27 14 37t53 10h33h639q37 0 51 -14q16 -13 16 -44q0 -84 -20.5 -152t-71.5 -145t-120.5 -152.5t-71.5 -88.5q0 -12 53.5 -36.5t89.5 -51.5q83 -62 123.5 -150.5t40.5 -208.5q0 -217 -141.5 -360t-352.5 -143 q-143 0 -276 77t-133 129z" />
<glyph unicode="4" horiz-adv-x="1124" d="M82 555q0 133 73 298.5t232 385.5q134 189 197 248t116 59h21l211 -12q12 0 18 -6t6 -19q0 -20 -104.5 -118.5t-169.5 -167.5q-134 -143 -217.5 -289t-83.5 -221q0 -15 9.5 -21t37.5 -6q42 0 96.5 12t73.5 23q37 21 61 110l19 64q48 145 135.5 246.5t144.5 101.5 q5 0 8 -5t3 -17l-38 -141q-38 -137 -38 -255q0 -61 27.5 -88t118.5 -37q26 0 37 -11q11 -8 11 -36v-192q0 -22 -8 -32.5t-26 -10.5q-12 0 -61 10q-21 4 -45.5 7t-41.5 3q-49 0 -67.5 -60.5t-18.5 -293.5v-14q0 -46 -8 -58q-6 -12 -27 -12h-217q-23 0 -31 12t-8 41 q0 92 19.5 209.5t19.5 134.5q0 32 -13.5 43t-61.5 11q-38 0 -85.5 -4t-100.5 -13q-114 -16 -132 -16q-51 0 -71.5 30.5t-20.5 106.5z" />
<glyph unicode="5" horiz-adv-x="1124" d="M113 143q0 8 5 22l13 34l100 210q8 17 16 25q8 6 17 8q8 0 96.5 -72.5t180.5 -72.5q94 0 150.5 59.5t56.5 157.5q0 105 -65 171.5t-165 66.5q-63 0 -145 -43q-42 -22 -66 -32.5t-33 -10.5q-14 0 -45.5 12t-46.5 27q-10 10 -16 38l-4 86q0 96 24 257.5t66 316.5l4 14 q29 109 117 109h561q18 0 28.5 -10t10.5 -27q0 -25 -7 -76.5t-15 -94t-16.5 -53t-29.5 -10.5l-106 16q-105 17 -203 17q-104 0 -131.5 -24.5t-48.5 -141.5l-21 -110l-3 -17l-1 -20q0 -13 14 -21t33 -8q12 0 69 21q28 10 53.5 16t47.5 6q186 0 301 -130t115 -345 q0 -252 -137.5 -393t-382.5 -141q-154 0 -272.5 56t-118.5 107z" />
<glyph unicode="6" horiz-adv-x="1124" d="M98 711q0 375 175.5 605t455.5 230q109 0 174.5 -21.5t65.5 -58.5l-1 -7l-4 -12l-75 -185q-2 -6 -4 -9t-9.5 -9.5t-15.5 -8.5q-4 1 -8.5 3t-14.5 8q-77 46 -149 46q-105 0 -202 -113.5t-97 -222.5q0 -15 7.5 -21.5t25.5 -6.5q12 0 92.5 43t161.5 43q155 0 266 -135.5 t111 -341.5q0 -241 -138.5 -400.5t-343.5 -159.5q-217 0 -345 198t-128 536zM381 545q0 -107 63.5 -180.5t153.5 -73.5q89 0 142 63.5t53 173.5q0 109 -53 172.5t-140 63.5q-89 0 -154 -62.5t-65 -156.5z" />
<glyph unicode="7" horiz-adv-x="1124" d="M158 1475v10q0 21 12 32t35 11h739q30 0 45 -8.5t15 -26.5v-172q0 -57 -85 -167l-42 -56q-125 -174 -192 -337.5t-67 -301.5q0 -115 48.5 -184.5t130.5 -69.5l16 1l18 1q15 0 21 -3t6 -9q0 -70 -89 -141.5t-202 -71.5q-119 0 -200.5 96.5t-81.5 245.5q0 122 54.5 266.5 t166.5 310.5q35 53 63 93.5t77 107.5q85 117 85 139q0 26 -19 37.5t-71 11.5h-203q-88 0 -156 -72l-69 -71q-9 0 -14.5 8.5t-8.5 28.5z" />
<glyph unicode="8" horiz-adv-x="1124" d="M78 369q0 85 31.5 160.5t93.5 140.5l39 37q65 57 65 92q0 11 -69.5 117.5t-69.5 226.5q0 179 114 290t302 111q187 0 303.5 -101t116.5 -261q0 -66 -23 -121t-68 -96l-28 -27q-68 -63 -68 -94q0 -28 65 -75l38 -30q64 -52 94 -119t30 -159q0 -219 -133 -349t-360 -130 q-217 0 -345 105.5t-128 281.5zM371 442q0 -71 51 -117t135 -46q90 0 143.5 45t53.5 122q0 90 -57.5 158t-135.5 68q-74 0 -132 -69t-58 -161zM414 1157q0 -72 63 -139.5t103 -67.5q52 0 108.5 68t56.5 147q0 71 -47 114.5t-123 43.5q-72 0 -116.5 -46t-44.5 -120z" />
<glyph unicode="9" horiz-adv-x="1124" d="M90 1040q0 204 143.5 356t333.5 152q209 0 340 -192.5t131 -511.5q0 -403 -168.5 -636t-455.5 -233q-98 0 -176 30.5t-78 62.5l3 19l7 22l104 239q6 13 14.5 22t16.5 9q7 0 66 -27.5t116 -27.5q106 0 186.5 88t80.5 194q0 29 -6 42t-19 14q-12 0 -90.5 -36t-155.5 -36 q-183 0 -288 120t-105 330zM350 1057q0 -100 57 -164t148 -64t146 56.5t55 150.5q0 119 -57 201t-142 82q-87 0 -147 -76t-60 -186z" />
<glyph unicode=":" horiz-adv-x="563" d="M53 186q0 89 62 151t151 62t151 -62t62 -151q0 -86 -63 -150.5t-150 -64.5q-90 0 -151.5 62.5t-61.5 152.5zM66 1018q0 89 61.5 151t151.5 62q89 0 152 -62t63 -151q0 -87 -63.5 -150t-151.5 -63q-90 0 -151.5 61t-61.5 152z" />
<glyph unicode=";" horiz-adv-x="563" d="M25 172l2 7l8 7l233 187q9 7 20.5 11.5t28.5 6.5q65 0 121 -69t56 -162q0 -129 -113 -220.5t-258 -91.5l-3 2l-1 3l8 15q51 83 51 150q0 42 -15.5 67.5t-56.5 47.5q-11 6 -21 10t-34.5 10.5t-25.5 18.5zM49 981q0 89 62 151t151 62t151 -62t62 -151q0 -86 -62.5 -149.5 t-150.5 -63.5q-90 0 -151.5 61t-61.5 152z" />
<glyph unicode="&#x3c;" horiz-adv-x="1706" d="M264 530v160l1178 486v-185l-934 -381l934 -381v-182z" />
<glyph unicode="=" horiz-adv-x="1706" d="M254 322v165h1198v-165h-1198zM254 733v168h1198v-168h-1198z" />
<glyph unicode="&#x3e;" horiz-adv-x="1706" d="M264 47v182l934 381l-934 381v185l1178 -486v-160z" />
<glyph unicode="?" horiz-adv-x="864" d="M72 1434q0 58 101.5 131t223.5 73q171 0 283.5 -119t112.5 -300q0 -116 -36 -207t-112 -162q-53 -50 -121 -94l-71 -47q-11 -15 -17.5 -34.5t-6.5 -45.5q0 -18 -1 -35t-4 -23q-3 -15 -21 -20.5t-79 -5.5q-63 0 -78 9t-15 40v194q0 39 12 67t46 60l82 70q155 123 155 227 q0 74 -39.5 124t-99.5 50q-70 0 -143 -94q-16 -20 -21 -22q-15 0 -60 48l-26 28q-42 42 -52.5 58.5t-12.5 29.5zM125 188q0 90 62 151.5t151 61.5t151 -61t62 -152q0 -86 -63 -150.5t-150 -64.5q-90 0 -151.5 62.5t-61.5 152.5z" />
<glyph unicode="@" horiz-adv-x="2048" d="M98 522q0 166 51.5 314t153.5 272q146 178 353 271.5t460 93.5q167 0 316 -45.5t254 -127.5q133 -103 198.5 -235.5t65.5 -300.5q0 -163 -65 -303t-185 -236q-69 -54 -150 -84q-43 -14 -83 -21t-85 -7q-105 0 -156.5 40.5t-51.5 125.5v4q-54 -86 -128 -127t-176 -41 q-151 0 -232 87t-81 249q0 231 138 394t333 163q89 0 149.5 -34t98.5 -108l55 107h154l-148 -586l-2 -12l-6 -37q0 -38 27 -61t69 -23q50 0 107 30t106 85q36 37 63 80.5t43 84.5q2 107 -7 224q-56 244 -196.5 376t-430.5 136q-135 21 -244 -1.5t-219 -90.5 q-168 -116 -258.5 -278.5t-73.5 -383.5q-9 -308 276 -473t439 -137q158 -20 319.5 16.5t360.5 187.5l2 -184q-147 -111 -317 -169t-357 -58q-192 0 -350.5 48t-281.5 142q-154 117 -232 275q-38 80 -57 168t-19 190zM741 444q0 -97 45 -150.5t129 -53.5q89 0 162.5 66 t100.5 173l55 228q-14 85 -62 130.5t-122 45.5q-125 0 -216.5 -128.5t-91.5 -310.5z" />
<glyph unicode="A" horiz-adv-x="1350" d="M68 426q0 223 63.5 432t187.5 389q98 143 216 240.5t180 97.5q43 0 117 -57.5t147 -153.5q136 -177 199 -397t63 -533q0 -124 -12.5 -238.5t-26.5 -156.5q-9 -30 -25 -39.5t-59 -9.5h-237q-25 0 -36.5 3.5t-13.5 12.5q0 10 20 57q45 114 68 211t23 177q0 73 -28 101 t-101 28q-72 0 -156.5 -15.5t-153 -40t-98.5 -63t-30 -102.5q0 -105 57 -226t57 -127q0 -9 -7 -12.5t-27 -3.5h-277q-54 0 -82 109q-14 57 -21 133t-7 184zM408 852q0 -29 9 -41q10 -10 38 -10l101 21q104 22 214 22q95 0 121.5 12t26.5 49q0 41 -19.5 96.5t-54.5 116.5 q-49 85 -79 114q-29 30 -58 30q-34 0 -77.5 -40t-101.5 -124q-61 -90 -90.5 -150.5t-29.5 -95.5z" />
<glyph unicode="B" horiz-adv-x="1233" d="M104 723q0 79 2 140q7 214 7 222q0 70 3 107t21 186q15 112 36.5 147.5t70.5 35.5h483q168 0 253 -70t85 -205q0 -54 -20.5 -110.5t-59.5 -110.5q-24 -32 -74.5 -88t-50.5 -76t63 -82t99 -102q70 -79 102.5 -163.5t32.5 -186.5q0 -116 -40.5 -198t-117.5 -126 q-41 -23 -101 -33q-28 -4 -76.5 -7t-106.5 -3h-504q-35 0 -47.5 12t-24.5 76q-11 73 -16 114q-9 80 -9 154q0 54 -3 131q-7 180 -7 236zM365 967q0 -44 12.5 -67t38.5 -23q39 0 92 32t137 105q75 66 109 116.5t34 92.5q0 47 -42 75.5t-117 28.5q-146 0 -205 -79t-59 -281z M381 551q0 -170 45 -238.5t168 -68.5q134 0 205 50.5t71 145.5q0 92 -82 203t-137 111q-9 0 -18 -4l-21 -9l-172 -96q-36 -18 -47.5 -38t-11.5 -56z" />
<glyph unicode="C" horiz-adv-x="1237" d="M70 786q0 349 177 574t449 225q159 0 260 -72.5t101 -185.5q0 -74 -50 -125t-122 -51h-8q-16 77 -65.5 118.5t-127.5 41.5q-146 0 -243 -136t-97 -344q0 -226 113 -372t284 -146q93 0 173.5 43.5t117.5 112.5q14 24 22.5 46t15.5 51l11 48q17 0 40.5 -65.5t23.5 -149.5 q0 -188 -130 -307t-339 -119q-278 0 -442 219.5t-164 593.5z" />
<glyph unicode="D" horiz-adv-x="1313" d="M125 795q0 105 3 195t10 172q0 68 13 149q8 50 27 139q15 71 27.5 91t44.5 20h307q131 0 228.5 -54.5t191.5 -181.5q106 -143 168.5 -341.5t62.5 -393.5q0 -287 -130 -438.5t-376 -151.5h-452q-63 0 -94 192t-31 603zM414 850q0 -353 51 -487t178 -134q119 0 197 118.5 t78 307.5q0 121 -33.5 239.5t-100.5 225.5q-56 92 -123.5 148.5t-119.5 56.5q-70 0 -99 -102q-14 -52 -21 -142.5t-7 -230.5z" />
<glyph unicode="E" horiz-adv-x="1163" d="M127 649q0 219 20 412q11 104 24 186.5t33 167.5t39.5 115.5t49.5 30.5h741q26 0 36 -5t11 -18l-1 -9l-3 -7l-110 -240q-10 -18 -15.5 -23.5t-15.5 -7.5q-4 2 -7 3q-9 4 -20 11q-128 74 -243 74q-125 0 -198 -72t-73 -200q0 -44 17 -71t45 -27q30 0 138 45t185 45 q80 0 101 -8q22 -6 22 -27l-1 -7l-3 -11l-88 -244l-6 -15q-6 -19 -17 -20l-57 16q-56 17 -102 17q-102 0 -168 -70t-66 -180q0 -127 65 -197.5t183 -70.5q95 0 202 63l107 64q9 0 16 -6.5t15 -22.5l127 -275l4 -13l2 -11q0 -21 -19.5 -31t-60.5 -10h-819q-44 0 -57 13 q-11 13 -19 76q-4 36 -7 85.5t-3 119.5z" />
<glyph unicode="F" horiz-adv-x="1163" d="M162 678q0 81 7 223t7 204q0 86 14 180q5 37 29 157q15 77 33 98t57 21h811q21 0 31 -6t10 -21l-1 -9l-1 -5l-119 -252q-8 -19 -15 -26t-19 -9q-8 3 -13 5q-12 7 -19 11q-137 80 -249 80q-117 0 -186.5 -77t-69.5 -208q0 -81 15.5 -105t62.5 -24q15 0 128 50.5t208 50.5 q40 0 61 -10q23 -9 23 -27l-1 -4l-1 -4l-78 -258q-3 -14 -10.5 -21t-18.5 -8l-55 12q-49 13 -86 13q-115 0 -176.5 -69.5t-61.5 -201.5q0 -58 8 -117.5t27 -132.5q35 -140 35 -155q0 -21 -9.5 -27t-54.5 -6h-239q-31 0 -44.5 8.5t-21.5 36.5q-5 24 -9.5 68.5t-4.5 103.5 q0 29 -1 106.5t-1.5 166t-1.5 188.5z" />
<glyph unicode="G" horiz-adv-x="1294" d="M72 700q0 385 208.5 636t528.5 251q159 0 254.5 -67t95.5 -179q0 -75 -48 -125.5t-118 -50.5l-29 3l-34 10v4q0 51 -44 81.5t-122 30.5q-167 0 -279 -157.5t-112 -403.5q0 -201 84 -321.5t225 -120.5q104 0 170 57t66 152q0 86 -120 173q-30 21 -30 27q2 8 4 10l9 7 l290 127l25 10q18 0 26.5 -10.5t14.5 -41.5l63 -353l9 -60l3 -47q0 -168 -128 -267.5t-349 -99.5q-304 0 -483.5 196.5t-179.5 528.5z" />
<glyph unicode="H" horiz-adv-x="1458" d="M150 610q0 137 4 257t13 221q18 206 56 356l1 3q27 114 87 114h244q24 0 32.5 -5.5t8.5 -19.5q0 -12 -29 -69q-123 -249 -123 -435q0 -46 11 -60t43 -14q13 0 121 31q54 15 106 23t102 8l60 -2l49 -2q29 0 41 12t12 45q0 31 -18.5 104.5t-48.5 149.5q-23 58 -60 131 q-33 68 -33 78q0 14 8.5 19.5t32.5 5.5h244q58 0 87 -114l1 -3q47 -194 70 -398q10 -96 16 -221t6 -264q0 -75 -2 -138q-6 -190 -6 -198q0 -64 -5.5 -110.5t-13 -72t-22 -34t-57.5 -8.5h-246q-23 0 -32 6q-7 7 -7 29q3 10 6 19t15 40t21 59t20 62q30 102 48.5 202t18.5 167 q0 91 -37 132.5t-118 41.5q-86 0 -176.5 -24t-150 -61.5t-86 -93.5t-26.5 -147q0 -162 81 -342q18 -42 20 -55q0 -19 -9 -28q-9 -7 -32 -7h-260q-28 0 -42.5 9.5t-23.5 35.5q-6 25 -11 74.5t-5 113.5q0 78 -1 123q-5 223 -5 254z" />
<glyph unicode="I" horiz-adv-x="672" d="M152 586q0 83 3 163t7 172t4 142q0 101 14 214q5 39 29 189q9 64 21.5 79.5t50.5 15.5h221q25 0 36 -5t10 -16q0 -18 -16 -89q-75 -336 -75 -642q0 -173 17 -343t53 -351q3 -14 8 -43.5t6 -42.5q0 -15 -13.5 -22t-40.5 -7h-219q-38 0 -52 7.5t-23 33.5q-17 50 -24 98.5 t-7 100.5q0 42 -3 112q-7 164 -7 234z" />
<glyph unicode="J" horiz-adv-x="772" d="M-10 121q0 19 15 64.5t52 133.5q17 44 32 61t32 17q14 0 49.5 -65.5t77.5 -65.5q45 0 63.5 55.5t18.5 190.5q0 565 -83 968l-7 42q0 17 15 28q7 5 17 8t23 3h221q38 0 53.5 -12t26.5 -52q10 -44 18.5 -104.5t8.5 -127.5q0 -48 3 -123q7 -174 7 -239q0 -566 -82 -749 t-297 -183q-103 0 -183.5 48.5t-80.5 101.5z" />
<glyph unicode="K" horiz-adv-x="1237" d="M111 586q0 66 4 161q9 214 9 265q0 108 18 252q5 40 20 145l1 7q18 143 64 143l5 1l10 1h221q27 0 38 -6.5t11 -24.5q0 -24 -47 -227q-23 -100 -35 -189t-12 -164q0 -35 9 -57.5t26 -22.5q42 0 137 128.5t186 320.5q42 86 65 186q12 56 54 56h182q26 0 41 -9t15 -26 q0 -39 -33.5 -121.5t-91.5 -179.5q-21 -35 -50 -79.5t-62.5 -93t-52 -82t-18.5 -48.5q0 -17 89.5 -128.5t148.5 -236.5q56 -119 87 -252q16 -66 24 -127t8 -121q0 -33 -9.5 -45t-33.5 -12h-265q-24 0 -33 9q-7 11 -7 36v68q0 198 -75.5 390.5t-123.5 192.5q-16 0 -52 -31.5 t-96 -97.5q-22 -27 -33.5 -56.5t-11.5 -68.5q0 -61 7 -120t24 -137l31 -152q0 -14 -15.5 -23.5t-37.5 -9.5h-222q-32 0 -52 12q-17 12 -28 42q-16 51 -28 194q0 44 -3 113q-7 162 -7 225z" />
<glyph unicode="L" horiz-adv-x="1090" d="M141 385q0 256 28 529.5t77 496.5l6 31q24 119 90 119h258q18 0 24 -5q8 -3 9 -14q0 -10 -38 -101q-32 -80 -65 -179q-50 -160 -81 -358t-31 -359q0 -150 54 -224.5t165 -74.5q48 0 96.5 18t102.5 55q25 19 56.5 53t41.5 34t17.5 -9.5t13.5 -29.5l80 -294l4 -16l2 -20 q0 -21 -17 -30q-18 -7 -65 -7h-733q-36 0 -47.5 5.5t-19.5 28t-18 125.5t-10 226z" />
<glyph unicode="M" horiz-adv-x="1722" d="M152 829q0 70 3 146q8 204 8 230q0 83 8 152q4 36 17 105l2 9q17 90 54 90h229q57 0 95 -30.5t94 -119.5q66 -105 121 -233.5t65 -128.5q8 0 71 128q31 65 65.5 122.5t76.5 111.5q65 87 105.5 118.5t84.5 31.5h195q54 0 69 -77l3 -16q15 -81 21.5 -151.5t6.5 -134.5 q0 -58 5 -200t5 -228q0 -75 -6 -202.5t-5 -167.5q0 -81 -9 -154q-5 -42 -20 -123l-4 -21q-14 -86 -72 -86h-254q-19 0 -26 3t-7 11l23 78q21 66 42 163t33.5 227.5t12.5 355.5v49q0 140 -12.5 200t-41.5 60q-31 0 -88 -109q-53 -106 -106 -274q-27 -91 -58 -238 q-36 -182 -110 -182q-81 0 -128 192q-32 139 -56 214q-62 193 -116 297t-91 104q-25 0 -37 -68q-4 -31 -7 -94.5t-3 -144.5q0 -406 108 -763l14 -56q0 -13 -7 -20q-7 -5 -25 -5h-232q-47 0 -62 12.5t-25 57.5t-15 119.5t-5 146.5q0 91 -2 171q-7 279 -7 322z" />
<glyph unicode="N" horiz-adv-x="1470" d="M158 715q0 120 3.5 279.5t3.5 175.5q0 76 6 143.5t17 129.5l5 36q11 82 49 82h182q57 0 102 -42t144 -186q125 -178 235 -387t127 -209q10 0 18 27q3 14 5 31.5t2 40.5q0 352 -80 660l-10 46q0 8 9.5 13.5t35.5 5.5h188q24 0 35.5 -13.5t17.5 -51.5q12 -76 18 -133 q11 -101 11 -188q0 -79 3 -162q9 -248 9 -284q0 -84 -2 -148q-7 -224 -7 -227q0 -82 -5.5 -133.5t-17.5 -128.5l-2 -11q-12 -81 -72 -81h-197l-30 3q-8 3 -13 12l-35 112q-26 88 -43 141q-6 19 -30 90q-97 290 -221 501.5t-173 211.5q-24 0 -35.5 -31t-11.5 -100 q0 -436 84 -832l13 -69q0 -23 -12 -32q-14 -7 -48 -7h-194q-34 0 -46 18q-10 18 -18 75q-7 72 -10.5 130.5t-3.5 105.5q0 56 -3 184t-3 202z" />
<glyph unicode="O" horiz-adv-x="1425" d="M84 532q0 203 57 408.5t162 372.5q84 131 190.5 202.5t221.5 71.5t213 -69.5t200 -221.5q97 -143 151 -335.5t54 -397.5q0 -315 -154 -452.5t-513 -137.5q-306 0 -444 132.5t-138 426.5zM393 653q0 -184 72.5 -261t249.5 -77q165 0 241 85t76 272q0 253 -99.5 440.5 t-217.5 187.5q-128 0 -225 -191t-97 -456z" />
<glyph unicode="P" horiz-adv-x="1241" d="M162 766q0 92 3 185q8 249 8 264q0 86 11 166q7 52 23 126q6 32 18 43t39 11h588q170 0 262 -84.5t92 -241.5q0 -138 -74.5 -254.5t-240.5 -235.5q-62 -43 -170.5 -103.5t-152 -94t-58 -66.5t-14.5 -86q0 -135 54 -314q15 -48 15 -61q0 -10 -11 -16q-6 -2 -13.5 -3 t-24.5 -1h-266q-32 0 -47 12q-11 11 -17 52q0 43 -12 209q-6 83 -6 133q0 59 -3 179t-3 181zM461 899q0 -52 9.5 -79t29.5 -27q26 0 94 36t145 97q92 69 130 124.5t38 112.5q0 80 -56.5 122t-166.5 42q-117 0 -166 -62q-24 -30 -38.5 -86.5t-14.5 -133.5l-4 -132v-14z" />
<glyph unicode="Q" horiz-adv-x="1352" d="M86 774q0 368 159 589.5t427 221.5q251 0 406 -213.5t155 -568.5q0 -137 -22 -261t-68 -251q68 -73 99.5 -140t31.5 -139q0 -45 -9.5 -71.5t-25.5 -26.5t-89 67q-63 59 -138 119q-67 -62 -152.5 -95.5t-187.5 -33.5q-270 0 -428 216.5t-158 586.5zM385 764 q0 -122 16 -209t52 -152q68 -124 194 -124h23q13 3 19 4q23 4 29 5.5t30 8.5q-93 81 -139 166.5t-46 181.5q0 42 13.5 73t25.5 32l6 -10q27 -58 94 -122q26 -24 53.5 -46t54.5 -40q51 -33 83 -36q18 38 31.5 133t13.5 196q0 229 -69.5 353.5t-196.5 124.5 q-138 0 -212.5 -140.5t-74.5 -398.5z" />
<glyph unicode="R" horiz-adv-x="1311" d="M139 766q0 92 3 185q8 249 8 264q0 86 11 166q7 52 23 126q6 32 17.5 43t40.5 11h585q169 0 264 -87t95 -241q0 -39 -6 -73t-19.5 -69.5t-33 -69.5t-50.5 -73q-45 -60 -104 -113t-60 -63q0 -16 83.5 -110t140 -198.5t91.5 -226.5q16 -58 25 -113t9 -99q0 -10 -18 -18 q-21 -7 -46 -7h-225q-41 0 -61 99t-42 169q-47 164 -106 256t-115 92q-58 0 -119 -57t-61 -129q0 -99 36 -247t36 -165q0 -8 -10 -14q-6 -2 -13 -3t-24 -1h-269q-32 0 -46 12q-6 6 -10.5 19.5t-4.5 31.5q0 37 -13 210q-6 80 -6 133q0 59 -3 179t-3 181zM432 924 q0 -45 12 -66.5t33 -21.5q26 0 93.5 33.5t146.5 88.5q97 68 132.5 115.5t35.5 102.5q0 73 -57 112t-166 39q-114 0 -165 -55q-25 -28 -41 -77t-16 -114l-8 -139v-18z" />
<glyph unicode="S" horiz-adv-x="1239" d="M80 399q0 100 39.5 184.5t70.5 84.5q14 0 25 -66t37 -119q51 -105 135.5 -156t206.5 -51q117 0 184.5 51t67.5 138q0 131 -286 231l-24 9q-227 80 -322 186t-95 270q0 189 130 306q65 59 150.5 88.5t192.5 29.5q169 0 315 -67t146 -127q0 -19 -13.5 -52.5t-42.5 -81.5 q-25 -46 -46.5 -70t-39.5 -24l-112 83q-112 83 -215 83q-78 0 -129.5 -45.5t-51.5 -116.5q0 -65 51.5 -108.5t221.5 -102.5q256 -84 364.5 -199t108.5 -296q0 -220 -151.5 -354t-401.5 -134q-229 0 -372.5 119.5t-143.5 306.5z" />
<glyph unicode="T" horiz-adv-x="1235" d="M41 1141q0 17 13 78l20 102l7 41q18 104 52 125q68 40 208 70t292 30q237 0 400 -45t163 -106q0 -80 -39.5 -177.5t-62.5 -97.5q-9 0 -40 32t-59 52q-44 35 -78.5 51.5t-64.5 16.5q-68 0 -98.5 -119t-30.5 -391q0 -394 103 -721q5 -14 9 -29.5t5 -21.5q0 -11 -18 -22 q-18 -9 -46 -9h-252q-29 0 -44 12q-11 11 -23 56q-14 64 -25 189q0 38 -3 92q-7 126 -7 165q0 293 56 619q16 96 16 114q0 36 -10 49t-38 13q-31 0 -87.5 -28t-133.5 -83q-27 -19 -80 -65t-77 -46q-12 0 -20 14q-7 16 -7 40z" />
<glyph unicode="U" horiz-adv-x="1352" d="M98 815q0 208 16 387.5t42 280.5q14 54 26.5 66t48.5 12h232q18 0 25 -4.5t8 -20.5q0 -20 -19 -90q-71 -276 -71 -537q0 -289 69.5 -430t214.5 -141q135 0 196.5 119.5t61.5 384.5q0 325 -73 626l-13 66q0 12 9 20q11 7 30 7h191q35 0 51.5 -14.5t30.5 -60.5 q22 -96 37 -268q0 -53 7 -176t7 -194q0 -439 -141.5 -657t-424.5 -218q-266 0 -413.5 219.5t-147.5 622.5z" />
<glyph unicode="V" horiz-adv-x="1278" d="M86 1118q0 242 24 342.5t83 100.5h235q18 0 30 -9t13 -20l-48 -186q-48 -183 -48 -357q0 -244 89.5 -445.5t162.5 -201.5q89 0 187.5 221.5t98.5 503.5q0 148 -58 306l-58 163q0 12 13 18.5t38 6.5h207q28 0 41 -8q13 -6 23.5 -30.5t22 -70t20.5 -103.5q18 -114 18 -245 q0 -251 -65 -467.5t-193 -386.5q-43 -57 -87.5 -106t-92.5 -91q-92 -80 -128 -80q-39 0 -125 74.5t-165 188.5q-122 173 -180 386.5t-58 495.5z" />
<glyph unicode="W" horiz-adv-x="1683" d="M90 1130q0 292 13.5 361.5t60.5 69.5h215q39 0 49 -7t10 -26l-6 -34q-45 -191 -45 -417q0 -242 42 -415t93 -173q78 0 150.5 213.5t72.5 507.5q0 74 -7 148.5t-22 148.5l-5 29q0 10 9 18q8 5 25 7h240q23 0 34 -9t11 -28l-3 -24q-32 -186 -32 -423q0 -246 49.5 -417 t108.5 -171t126 200q33 101 50 211.5t17 234.5q0 132 -27 264l-27 135q0 10 12.5 18.5t28.5 8.5h180h25q36 0 52 -60.5t16 -210.5q0 -244 -52 -482t-151 -450q-38 -83 -76 -151t-79 -125q-78 -111 -109 -111q-27 0 -68.5 50t-101.5 159q-39 71 -91 183q-48 104 -63 106 q-19 0 -63.5 -99.5t-89.5 -174.5l-9 -16q-124 -208 -164 -208q-38 0 -98.5 83.5t-128.5 232.5q-88 197 -130 398t-42 445z" />
<glyph unicode="X" horiz-adv-x="1196" d="M45 70q0 95 38 222.5t101 237.5q48 83 129.5 172t81.5 125q0 30 -72.5 120.5t-107.5 162.5q-45 92 -68.5 189.5t-23.5 191.5q0 45 7.5 57.5t29.5 12.5h256q41 0 41 -64q0 -92 16 -172q27 -147 71.5 -236.5t88.5 -89.5q55 0 104 130t49 294l-1 43l-1 50q0 23 9 34t30 11 h205q33 0 44 -20t11 -87q0 -104 -21.5 -202.5t-62.5 -178.5q-19 -38 -43.5 -74t-60.5 -77q-68 -79 -68 -103q0 -33 73.5 -120.5t113.5 -168.5q57 -114 84.5 -236t27.5 -251q0 -26 -9.5 -34.5t-35.5 -8.5h-233q-74 0 -74 106q0 38 -2 58.5t-10 62.5q-24 150 -81.5 261.5 t-98.5 111.5q-36 0 -96.5 -78.5t-96.5 -183.5q-16 -51 -32.5 -126t-22.5 -136l-1 -22q0 -54 -46 -54h-178h-9q-37 0 -47 13q-8 14 -8 57z" />
<glyph unicode="Y" horiz-adv-x="1196" d="M33 1458q0 58 11 80.5t38 22.5h250q21 0 31 -10t10 -35l-3 -53l-3 -70q0 -197 87 -366t156 -169q21 0 62 49.5t91 140t74 171.5q11 39 17 79.5t6 81.5v12v42q-3 29 -4 43l-4 49q0 19 9 27t28 8h211q29 0 44 -31q13 -33 13 -109q0 -133 -48.5 -257.5t-182.5 -305.5 q-167 -227 -228 -389t-61 -340l3 -61l3 -35q0 -17 -12 -26q-14 -7 -43 -7h-217q-34 0 -48 24t-14 85q0 123 65.5 271.5t67.5 166.5q0 33 -97 140.5t-163 215.5q-73 125 -111 266t-38 289z" />
<glyph unicode="Z" horiz-adv-x="1161" d="M47 74q0 102 51 243q26 73 63 150t89 168q98 174 248.5 372t150.5 253q0 33 -35 56t-90 23q-100 0 -190 -56l-90 -56q-6 0 -14 7l-11 21l-94 254l-2 7l-4 24q0 7 11 13.5t26 7.5h854q65 0 91.5 -15t26.5 -51q0 -60 -69.5 -179t-233 -330t-257 -376t-93.5 -237 q0 -65 42.5 -100t121.5 -35q138 0 279 98q38 26 49 26q7 0 14.5 -7t13.5 -21l99 -271l4 -18l2 -14q0 -18 -9.5 -24.5t-60.5 -6.5h-901q-51 0 -66.5 12.5t-15.5 61.5z" />
<glyph unicode="[" horiz-adv-x="748" d="M74 1014q0 328 20 436.5t74 108.5h483q32 0 39.5 -10.5t7.5 -39.5q0 -77 -18 -133.5t-43 -56.5l-23 6q-84 25 -155 25q-39 0 -54 -17t-22.5 -84.5t-15.5 -143.5t-8 -126q0 -41 -2 -90q-5 -122 -5 -156q0 -137 10 -251q0 -50 9 -106q5 -33 18 -87q9 -42 28 -61 q19 -17 54 -17q41 0 101 16.5t77 16.5q23 0 38 -45l5 -16q6 -17 14 -46t12 -46q9 -36 9 -58q0 -21 -11.5 -27t-49.5 -6h-476q-48 0 -60 106l-9 78q-17 123 -18 132q-18 137 -18 229q0 38 -5.5 218.5t-5.5 250.5z" />
<glyph unicode="\" horiz-adv-x="563" d="M-29 1538q0 9 8.5 15t22.5 6h70q25 0 36.5 -9.5t20.5 -38.5l434 -1484l3 -14l1 -17q0 -8 -8 -14.5t-22 -8.5h-70q-24 0 -36 9t-21 38l-435 1485l-3 14z" />
<glyph unicode="]" horiz-adv-x="748" d="M23 33q0 17 1.5 26.5t5.5 28t8.5 36t18.5 58.5l5 16q12 46 38 46q9 0 29.5 -4t49.5 -13q64 -16 100 -16t53.5 17.5t27.5 60.5q17 75 27 193q0 37 3 90q7 123 7 161q0 228 -30 504l-2 18q-6 61 -22 78q-14 17 -52 17q-73 0 -155 -25l-23 -6q-23 0 -44 56q-18 56 -18 134 q0 30 8 40t39 10h482q54 0 75 -113t21 -432q0 -103 -4.5 -255t-4.5 -183q0 -78 -9 -170q-4 -40 -19 -156l-12 -100q-15 -150 -70 -150h-473q-36 0 -48.5 6t-12.5 27z" />
<glyph unicode="^" horiz-adv-x="2048" d="M418 899l497 561h218l495 -561h-207l-397 397l-399 -397h-207z" />
<glyph unicode="_" d="M0 -311h1024v-172h-1024v172z" />
<glyph unicode="`" d="M250 1493q0 52 23 92.5t57 40.5q10 0 23 -4q17 -3 30 -10l385 -158q28 -11 36 -20q9 -8 9 -21q0 -32 -17.5 -66t-37.5 -34l-16 1q-10 2 -15 5l-404 113q-43 12 -58 24.5t-15 36.5z" />
<glyph unicode="a" horiz-adv-x="1014" d="M70 326q0 63 17 117.5t54 105.5q72 99 207 162q33 16 76 29.5t99 26.5q98 23 98 71q0 63 -55 112t-132 49q-55 0 -97 -22t-69 -66q-11 -18 -19 -51q-6 -31 -24 -31q-51 0 -90 45t-39 111q0 104 92.5 168t243.5 64q80 0 150 -20t129 -58q95 -64 136.5 -160.5t41.5 -288.5 q0 -187 6 -336t20 -279l3 -24q0 -40 -17.5 -54.5t-71.5 -14.5l-62 3l-75 3q-49 0 -122 -7q-41 -4 -64.5 -6t-44.5 -2q-187 0 -289 91.5t-102 261.5zM334 371q0 -71 52 -118.5t134 -47.5q62 0 88.5 16.5t26.5 54.5v230q0 36 -19.5 55t-58.5 19q-85 0 -154 -60.5t-69 -148.5z " />
<glyph unicode="b" horiz-adv-x="1087" d="M115 911q0 75 3 156q8 216 8 239q0 84 8 148q5 43 16 83q6 23 24 31q21 7 92 7h60q63 0 83.5 -4.5t22.5 -18.5q0 -31 -28.5 -139t-28.5 -168q0 -34 12 -56t33 -22q28 0 97 26t116 26q149 0 250.5 -154t101.5 -393q0 -306 -138 -489t-370 -183h-250q-51 0 -69 19 q-10 12 -16.5 39t-6.5 72q0 48 -4 110q-11 169 -11 232q0 88 -2.5 244.5t-2.5 194.5zM365 801l1 -75l1 -75q0 -183 36 -260.5t121 -77.5q102 0 155.5 90.5t53.5 266.5q0 174 -58 271t-159 97q-79 0 -115 -55.5t-36 -181.5z" />
<glyph unicode="c" horiz-adv-x="940" d="M61 545q0 299 147 485.5t374 186.5q121 0 198.5 -60.5t77.5 -155.5q0 -55 -37 -100t-76 -45q-17 0 -33.5 33.5t-29.5 48.5q-22 26 -57 43q-18 8 -33.5 12t-34.5 4q-101 0 -173.5 -113.5t-72.5 -285.5q0 -156 71 -245t196 -89q61 0 108.5 18.5t83.5 57.5q24 24 39 57 t20 33q18 0 28.5 -31.5t10.5 -85.5q0 -160 -97 -250t-269 -90q-198 0 -319.5 156t-121.5 416z" />
<glyph unicode="d" horiz-adv-x="1092" d="M92 547q0 277 126.5 468t301.5 191q8 0 22 -1t30 -4l51 -5q33 0 46 16t13 60q0 70 -24.5 161t-24.5 109q0 19 19 26t91 7h48q83 0 102.5 -9t28.5 -55q49 -349 49 -874q0 -82 -2 -154q-6 -217 -6 -235q0 -84 -4.5 -131.5t-9.5 -73t-16.5 -34.5t-49.5 -9h-27h-346 q-213 0 -315.5 133.5t-102.5 413.5zM352 612q0 -149 54.5 -235t148.5 -86q87 0 128 59q20 30 30 76t10 115v307q0 115 -28.5 161t-94.5 46q-99 0 -173.5 -130t-74.5 -313z" />
<glyph unicode="e" horiz-adv-x="1012" d="M70 575q0 295 133.5 468.5t359.5 173.5q162 0 265.5 -88t103.5 -226q0 -114 -62 -192t-200 -133l-117 -43q-199 -69 -199 -152q0 -58 63.5 -97.5t164.5 -39.5q67 0 123 18.5t100 54.5q72 62 93 140q3 13 7 14q20 0 32 -35q5 -16 8 -40t3 -58q0 -165 -112.5 -266 t-298.5 -101q-218 0 -342.5 159t-124.5 443zM313 739q0 -20 10 -33.5t23 -13.5q12 0 18 2l22 7l237 79q38 13 59 39q10 12 15 27t5 35q0 52 -43 86t-110 34q-95 0 -165.5 -81t-70.5 -181z" />
<glyph unicode="f" horiz-adv-x="674" d="M23 1012q0 58 13 104t31 55q11 5 63 9q24 0 41 6.5t24 18.5l21 103q18 99 58 158q45 66 118 97.5t181 31.5q44 0 59 -12t15 -47q0 -26 -4 -58t-13 -66q-15 -69 -28 -69l-24 4l-27 5q-40 0 -68 -38.5t-28 -94.5q0 -17 10.5 -30.5t23.5 -14.5h26q16 3 23 4l44 4 q32 0 46.5 -19t14.5 -69q0 -68 -8 -92q-6 -25 -25 -25q-13 0 -47.5 9t-54.5 9q-45 0 -63.5 -37t-18.5 -143q0 -245 39 -515l39 -271q0 -18 -7 -23.5t-36 -5.5h-205q-34 0 -41.5 10.5t-13.5 47.5t-10 84.5t-4 116.5q0 64 -2.5 187.5t-2.5 159.5l1 142l1 116q0 69 -14.5 99 t-46.5 30q-19 0 -44 -12t-32 -12q-8 0 -17 12q-7 14 -7 31z" />
<glyph unicode="g" horiz-adv-x="975" d="M37 207q0 50 19.5 88.5t67.5 80.5l50 41q64 49 64 75q0 14 -70 115.5t-70 217.5q0 165 108 277t263 112l57 -3l60 -3q45 0 78 52l20 30q29 40 60 70.5t42 30.5q12 0 29 -11q14 -8 53 -43q53 -47 70 -72q9 -13 12.5 -23t3.5 -23q0 -15 -57 -27l-20 -4q-49 -9 -73 -24.5 t-24 -37.5q0 -5 51 -94q26 -45 39 -92.5t13 -103.5q0 -134 -62 -228.5t-176 -128.5l-104 -30q-254 -71 -254 -162q0 -21 18.5 -33t50.5 -12q15 0 51 10.5t105 36.5q130 47 219 47q113 0 165 -29q54 -27 54 -88q0 -23 -21 -79t-55 -117q-9 -22 -24 -33t-29 -13q-8 6 -13 10 q-15 12 -38 34q-47 45 -104 45q-24 0 -64.5 -10.5t-109.5 -36.5q-130 -46 -211 -46q-115 0 -179.5 62t-64.5 172zM319 860q0 -85 45.5 -134.5t124.5 -49.5q83 0 133 50t50 132q0 89 -45 139t-127 50q-79 0 -130 -52.5t-51 -134.5z" />
<glyph unicode="h" horiz-adv-x="1092" d="M135 809q0 97 4 242t4 194q0 74 9 148q6 51 18 108q9 47 29 60.5t63 13.5h172q13 0 23 -8t12 -19q0 -33 -35 -159t-35 -205q0 -31 8 -47t23 -17q21 0 101 43t147 43q159 0 225 -137t66 -506q0 -36 -3.5 -118.5t-3.5 -121.5q0 -52 -4 -87.5t-12 -78.5l-5 -30 q-20 -127 -75 -127h-190q-27 0 -37 7q-8 8 -8 26l8 32q84 282 84 633q0 166 -34.5 232.5t-115.5 66.5q-91 0 -141.5 -112t-50.5 -318q0 -275 52 -507l5 -27q0 -18 -7 -25.5t-38 -7.5h-172q-28 0 -42 9q-11 9 -19 38.5t-12.5 101t-4.5 150.5q0 58 -2 149.5t-4 187t-2 173.5z " />
<glyph unicode="i" horiz-adv-x="526" d="M115 283v235q0 59 3 169t3 160q0 73 5 143q2 24 11 122l1 10q0 64 122 64h29q71 0 86.5 -6.5t15.5 -32.5q0 -6 -1 -21.5t-4 -40.5q-17 -190 -17 -348q0 -298 52 -616l11 -84q0 -23 -20.5 -30t-118.5 -7h-109q-41 0 -56 49q-13 52 -13 234zM154 1444q0 52 38.5 88.5 t96.5 36.5q60 0 97.5 -34.5t37.5 -90.5t-36 -92q-36 -33 -99 -33q-62 0 -98.5 33.5t-36.5 91.5z" />
<glyph unicode="j" horiz-adv-x="602" d="M-23 82q0 33 6 68t20 75q27 78 48 78q12 0 38 -21.5t44 -21.5q42 0 60 65.5t18 258.5q0 267 -30 522l-5 43q0 20 22 28.5t87 8.5q86 0 115.5 -6.5t35.5 -21.5q5 -17 9.5 -66t4.5 -124q0 -62 3.5 -199.5t3.5 -193.5q0 -165 -18 -280.5t-56 -186.5q-74 -139 -240 -139 q-73 0 -119.5 31.5t-46.5 81.5zM160 1446q0 50 39.5 87.5t97.5 37.5q62 0 98.5 -34.5t36.5 -90.5t-36.5 -90.5t-100.5 -34.5q-62 0 -98.5 33.5t-36.5 91.5z" />
<glyph unicode="k" horiz-adv-x="1012" d="M119 809q0 87 3 218t3 174q0 70 5 128.5t15 128.5t27 93.5t53 23.5h172q20 0 28 -8q9 -6 9 -25q0 -15 -15 -93q-63 -308 -63 -562v-78q0 -49 10.5 -72.5t30.5 -23.5q40 0 90.5 73t87.5 191q7 23 17 62t18 79q14 72 45 72h168q23 0 31 -5.5t8 -23.5q0 -44 -15.5 -103 t-44 -122.5t-82.5 -140.5t-54 -101q0 -37 91.5 -135t133.5 -190q27 -59 46 -146.5t19 -159.5q0 -39 -9 -51t-38 -12h-192q-48 0 -48 89q0 42 -5 72q-24 190 -65.5 276.5t-109.5 86.5q-47 0 -74 -33q-24 -33 -24 -102q0 -90 24.5 -219t24.5 -150q0 -9 -11 -15q-6 -3 -12 -4 t-20 -1h-192q-28 0 -40.5 8.5t-21.5 37.5q-5 19 -10.5 84.5t-5.5 165.5q0 59 -2 150.5t-4 188t-2 174.5z" />
<glyph unicode="l" horiz-adv-x="528" d="M125 809q0 95 2 174q6 236 6 239q0 73 7 136t17.5 124.5t30 76t117.5 14.5q51 0 82 -1t48 -4.5t18 -19.5l-10 -51q-34 -163 -52 -342.5t-18 -366.5q0 -346 60 -696l9 -67q0 -16 -3 -21q-4 -1 -7.5 -2t-7.5 -2h-33h-180q-27 0 -41 9q-10 9 -19 37q-5 20 -11 89.5t-6 165.5 q0 93 -2 175q-7 287 -7 333z" />
<glyph unicode="m" horiz-adv-x="1657" d="M117 385q0 101 3.5 259.5t3.5 192.5q0 90 7 178q4 55 13.5 131t32.5 93q26 16 134 16h27q67 0 84.5 -6.5t17.5 -27.5q0 -13 -9 -36.5t-9 -35.5q0 -21 8 -30t25 -9q14 0 85.5 38t139.5 38q66 0 144.5 -51.5t88.5 -51.5q9 0 99 51q46 26 89.5 39t88.5 13q170 0 253 -150.5 t83 -460.5q0 -43 -2 -91q-5 -120 -5 -146q0 -62 -9 -133q-2 -20 -11 -74l-2 -15q-15 -116 -102 -116l-62 1l-55 1h-45q-24 0 -32 3t-9 11q0 18 16 85q60 261 60 491q0 176 -50.5 279.5t-136.5 103.5q-66 0 -97.5 -37.5t-31.5 -116.5l3 -108l3 -154q0 -54 -3 -138t-4 -117 q0 -40 -2.5 -62.5t-18.5 -120.5l-3 -20q-15 -101 -104 -101l-70 1l-61 1h-28q-28 0 -34 4.5t-7 20.5q0 17 17 85q75 309 75 576q0 146 -35 210.5t-113 64.5q-98 0 -148 -98t-50 -290q0 -212 42 -466l13 -93q0 -7 -12.5 -10.5t-51.5 -3.5h-41h-65h-33q-46 0 -60.5 7.5 t-23.5 29.5t-12.5 47.5t-3.5 56.5z" />
<glyph unicode="n" horiz-adv-x="1090" d="M123 494q0 75 3 202t3 180q0 77 5 139.5t14.5 135t34.5 88.5q13 8 43.5 12t86.5 4q94 0 111 -8q20 -6 20 -28q0 -12 -9 -35.5t-9 -34.5q0 -21 8.5 -30t26.5 -9t89 37q34 17 68.5 27t65.5 10q150 0 214.5 -136t64.5 -491q0 -56 -2 -103q-6 -142 -6 -149q0 -48 -6 -94.5 t-17 -97.5l-4 -23q-15 -90 -103 -90l-74 1l-46 1h-43q-22 0 -29.5 6.5t-7.5 24.5l9 38q83 297 83 636q0 139 -35 196.5t-117 57.5q-91 0 -141.5 -98.5t-50.5 -280.5q0 -276 51 -516l6 -33q0 -20 -8 -26.5t-39 -6.5h-12h-103h-32q-60 0 -75 9t-24 42q-4 15 -7.5 48t-3.5 74 q0 79 -1 161.5t-2 159.5z" />
<glyph unicode="o" horiz-adv-x="1085" d="M72 590q0 283 129 453.5t344 170.5q202 0 327 -163.5t125 -434.5q0 -289 -130 -466t-341 -177q-202 0 -328 170t-126 447zM313 637q0 -161 60 -256.5t164 -95.5q97 0 159 102t62 264q0 156 -60 249t-157 93q-103 0 -165.5 -97t-62.5 -259z" />
<glyph unicode="p" horiz-adv-x="1087" d="M119 502q0 87 2 160q6 220 6 228q0 75 7 130t18.5 110.5t37 71t113.5 15.5q206 0 342.5 -21t209.5 -65q144 -86 144 -297q0 -120 -45.5 -229.5t-136.5 -201.5q-64 -64 -137.5 -108.5t-110.5 -44.5q-31 0 -68.5 32t-99.5 111h-16q0 -18 -2 -29v-40q0 -41 4 -88.5t13 -98.5 q18 -102 18 -117q0 -9 -11.5 -14.5t-33.5 -5.5h-185q-27 0 -37 6.5t-16 26.5q-5 22 -8.5 59t-3.5 96zM377 651q0 -115 19 -143.5t71 -28.5q103 0 201 94.5t98 208.5q0 95 -64.5 154t-166.5 59q-96 0 -127 -67.5t-31 -276.5z" />
<glyph unicode="q" horiz-adv-x="1096" d="M82 834q0 211 144 297t552 86q90 0 115.5 -15.5t38.5 -75.5q9 -43 16 -101t7 -129q0 -47 4 -178t4 -216q0 -61 -1.5 -133t-2.5 -154q0 -55 -2.5 -94t-8.5 -76q-3 -27 -13.5 -36t-39.5 -9h-199q-16 0 -23 6.5t-9 22.5l7 47q27 147 27 280l-1 20l-1 17h-16 q-60 -78 -98 -110.5t-70 -32.5q-37 0 -110 44t-138 109q-89 91 -135.5 201t-46.5 230zM315 782q0 -113 98.5 -207t202.5 -94q51 0 70 29t19 143v17q0 195 -30.5 260t-125.5 65q-101 0 -167.5 -59.5t-66.5 -153.5z" />
<glyph unicode="r" horiz-adv-x="862" d="M133 1055q0 88 12.5 111.5t63.5 23.5q45 0 72.5 -1t52.5 -2q33 0 41 -10q3 -3 14 -43q9 -38 43 -38q24 0 93 59t137 59q72 0 120.5 -54.5t48.5 -133.5q0 -73 -49 -135t-88 -62l-46 62q-42 63 -99 63q-74 0 -118 -91t-44 -251q0 -241 54 -502q12 -57 12 -71q0 -23 -19 -32 q-21 -7 -100 -7h-62q-78 0 -94 16q-12 15 -20 94q0 47 -5 115q-12 163 -12 224q0 97 -1 148q-5 253 -5 263l-1 111z" />
<glyph unicode="s" horiz-adv-x="936" d="M59 311q0 71 24 133t42 62l5 -10q7 -16 13 -32q15 -41 39 -79q44 -66 110 -105.5t138 -39.5q79 0 124.5 36t45.5 95q0 66 -154 139l-26 12q-199 95 -261.5 171t-62.5 192q0 153 105.5 242.5t287.5 89.5q129 0 233.5 -57t104.5 -113q0 -41 -53.5 -115t-87.5 -74 q-9 0 -75 76t-152 76q-55 0 -90 -30.5t-35 -74.5q0 -81 170 -154l74 -32q158 -72 228.5 -162t70.5 -217q0 -167 -119.5 -267t-323.5 -100q-172 0 -273.5 92t-101.5 246z" />
<glyph unicode="t" horiz-adv-x="674" d="M33 1014q0 10 3 25l5 25q7 38 9 46t11 35q6 22 17 30q9 9 31 9l20 -1l14 -1q69 0 87 100l12 56q7 28 92 64t139 36q18 0 25 -5t8 -20q0 -24 -22.5 -85.5t-22.5 -94.5q0 -26 19.5 -38.5t60.5 -12.5l18 1l16 1q33 0 43.5 -9.5t10.5 -39.5q0 -81 -11.5 -117.5t-37.5 -36.5 q-11 0 -36.5 9t-37.5 9q-48 0 -69 -52q-19 -54 -19 -202q0 -354 113 -586l14 -36q0 -12 -12 -27q-10 -15 -30 -27q-64 -42 -121 -70t-79 -28q-50 0 -86.5 163t-36.5 413q0 36 3 112t3 118l7 126q0 49 -14 69q-12 21 -44 21q-12 0 -39 -9t-41 -9q-9 0 -15.5 9.5t-6.5 29.5z " />
<glyph unicode="u" horiz-adv-x="1092" d="M121 618q0 55 3.5 143.5t3.5 108.5q0 53 5 95.5t14 86.5l5 27q17 111 71 111h195q23 0 32 -6q7 -7 7 -27l-10 -44q-80 -311 -80 -648q0 -140 34 -201t111 -61q97 0 148 99t51 292q0 140 -13 273t-40 257l-7 33q0 18 8 26q11 7 37 7h183q49 0 66 -51q8 -27 12 -88t4 -168 v-150q0 -112 -2 -207.5t-3 -176.5q0 -61 -3.5 -116t-10.5 -104l-1 -5q-15 -142 -173 -142h-13h-11q-42 0 -62 5q-27 4 -35 15l-6 16q-9 29 -35 29l-71 -37q-68 -37 -138 -37q-150 0 -213 139.5t-63 505.5z" />
<glyph unicode="v" horiz-adv-x="973" d="M41 1128q0 39 13 51q6 5 18 8t32 3h170q24 0 31.5 -4t7.5 -21l-2 -32l-2 -58q0 -304 60.5 -523.5t126.5 -219.5q57 0 116.5 188t59.5 430q0 84 -12 174l-3 27q0 23 12 31t42 8h137q38 0 48.5 -13t10.5 -63v-70q0 -202 -44.5 -402t-125.5 -355q-62 -120 -150 -217 t-116 -97q-44 0 -145 129q-48 62 -89.5 140t-74.5 166q-52 141 -87 345q-16 98 -25 195t-9 180z" />
<glyph unicode="w" horiz-adv-x="1386" d="M59 1018q0 116 12 144t64 28h156q23 0 36 -5t15 -16l-2 -17q-14 -106 -14 -214q0 -207 48 -379t95 -172q54 0 93.5 152.5t39.5 394.5q0 73 -7 140l-7 71q0 24 11.5 31.5t49.5 7.5h150q22 0 28.5 -4.5t6.5 -24.5l-5 -59l-4 -90q0 -261 40.5 -433t90.5 -172q45 0 88 134 q21 67 32 142.5t11 160.5q0 46 -3 108q-7 144 -7 180l-2 31q0 19 14.5 26t45.5 7h108q48 0 60 -26t12 -148q0 -219 -39.5 -401t-118.5 -326q-74 -139 -143 -226.5t-99 -87.5q-16 0 -49 43t-78 123l-54 108q-36 75 -50 75q-16 0 -47.5 -66.5t-58.5 -110.5q-52 -85 -85 -127.5 t-49 -44.5q-28 0 -89.5 78t-118.5 195q-88 181 -133 375q-22 96 -33 192.5t-11 202.5z" />
<glyph unicode="x" horiz-adv-x="938" d="M53 86q0 66 19 142q9 38 22 75t31 72q32 66 89.5 138.5t57.5 88.5q0 18 -47.5 76t-74.5 106q-35 62 -53.5 148.5t-18.5 187.5q0 48 8 59t35 11h180q43 0 43 -51q0 -46 8 -92q17 -115 55.5 -187t79.5 -72q33 0 67 58.5t54 154.5q8 41 16 114q0 75 38 75h143q33 0 43 -10.5 t10 -49.5q0 -67 -18.5 -143t-51.5 -141q-29 -58 -86 -121t-57 -84q0 -27 62.5 -87.5t95.5 -111.5q43 -68 67.5 -154t24.5 -182q0 -75 -8 -90q-6 -16 -29 -16h-188q-45 0 -45 63q0 37 -4.5 68t-14.5 68q-27 100 -75.5 172.5t-84.5 72.5q-40 0 -74 -60.5t-57 -170.5 q-14 -78 -16 -97t-2 -53q0 -63 -49 -63h-150q-29 0 -38 12q-7 14 -7 74z" />
<glyph unicode="y" horiz-adv-x="975" d="M59 1104q0 51 9.5 68.5t46.5 17.5h207q22 0 31 -3.5t9 -12.5l-6 -58q-6 -45 -6 -80q0 -148 78 -290t135 -142q50 0 87.5 113.5t37.5 277.5q0 58 -7 113l-7 59q0 11 6 17t20 6h177q33 0 42 -19t9 -104q0 -222 -69 -426q-34 -101 -84 -193.5t-116 -175.5 q-111 -141 -252.5 -220t-277.5 -79q-36 0 -46.5 8t-10.5 46v204q0 16 5 21.5t17 5.5l19 -2l22 -2q104 0 183 39t79 84q0 21 -65 77t-109 115q-82 115 -123 249t-41 286z" />
<glyph unicode="z" horiz-adv-x="864" d="M41 76q0 95 33 198.5t121 253.5q77 135 187 265t110 151q0 17 -21 29t-55 12q-50 0 -101.5 -9t-107.5 -29q-26 -9 -33 -9q-9 0 -15 9.5t-20 58.5l-22 96l-8 53q0 21 6 28t37 7h577q58 0 73 -17.5t15 -72.5q0 -183 -145 -350l-62 -72q-115 -142 -189.5 -256t-74.5 -143 q0 -33 18.5 -44.5t75.5 -11.5q101 0 238 36l45 9q11 0 20 -13t17 -40l29 -128l12 -69q0 -8 -10 -14q-6 -2 -13 -3t-22 -1h-623q-60 0 -76 13t-16 63z" />
<glyph unicode="{" d="M162 442v179l21 -2l22 -1q126 0 178.5 59t52.5 202v247q0 146 22.5 206.5t80.5 94.5q41 26 107.5 38t182.5 12h45v-179l-24 1l-23 1q-107 0 -146.5 -41.5t-39.5 -173.5v-241q0 -155 -43.5 -220t-159.5 -94q113 -27 158 -92.5t45 -220.5v-240q0 -132 39.5 -174.5 t148.5 -42.5l22 1l23 1v-176h-63q-101 0 -165.5 12t-106.5 37q-56 32 -79.5 95.5t-23.5 203.5v248q0 144 -52 203t-179 59l-22 -1z" />
<glyph unicode="|" d="M424 -483v2048h178v-2048h-178z" />
<glyph unicode="}" d="M152 -238l23 -1l22 -1q108 0 147 42t39 175v240q0 153 45 219t160 94q-113 27 -159 93t-46 221v241q0 132 -38 173.5t-146 41.5l-23 -1l-24 -1v179h45q113 0 179 -11.5t109 -38.5q56 -33 80 -95q11 -30 17 -81.5t6 -124.5v-247q0 -144 52 -202.5t179 -58.5l21 1l22 2 v-179l-22 1l-21 1q-126 0 -178.5 -59.5t-52.5 -202.5v-248q0 -145 -22.5 -204.5t-80.5 -94.5q-41 -25 -107 -37t-181 -12h-45v176z" />
<glyph unicode="~" horiz-adv-x="1706" d="M178 434v187q102 70 200 106.5t187 36.5q60 0 123.5 -12t170.5 -48l42 -15q166 -58 250 -58q85 0 177.5 37t201.5 116v-184q-100 -69 -196 -105t-185 -36q-35 0 -49.5 1.5t-43.5 6.5q-46 9 -98 27l-76 26q-213 74 -319 74q-83 0 -175.5 -38t-209.5 -122z" />
<glyph unicode="&#xa1;" horiz-adv-x="598" d="M33 6l76 225q77 223 77 467q0 160 -16 297l-2 23q0 14 12 22q14 7 43 7h35q56 0 71 -14q14 -11 29 -66q43 -143 70 -335.5t27 -363.5q0 -89 -4 -149t-13 -90q-17 -58 -84 -58q-203 0 -259 8q-62 6 -62 27zM51 1403q0 87 63 150t150 63q90 0 151.5 -61t61.5 -152t-62 -153 t-151 -62t-151 63t-62 152z" />
<glyph unicode="&#xa2;" horiz-adv-x="1124" d="M162 547q0 288 120 463t347 213l4 37q0 44 24 67t68 23q39 0 49 -7t10 -28v-18q-3 -11 -4 -16l-12 -50q101 -18 156 -73t55 -138q0 -67 -41 -114.5t-90 -47.5q-13 0 -42 56.5t-87 68.5l-11 -125q-26 -274 -26 -455l1 -69v-20t5 -39l20 -3h23q125 0 191 139q4 8 6 11.5 t4 5.5q24 0 36.5 -41t12.5 -113q0 -103 -62 -177.5t-176 -110.5l30 -66q18 -38 20 -51q0 -7 -9 -15.5t-25 -13.5l-93 -24l-3 -1l-16 -1q-14 0 -26 25q-9 25 -27 128q-103 0 -184 41.5t-139 118.5q-109 148 -109 420zM420 608q0 -111 37.5 -188t113.5 -119v66l-1 129l-1 129 q0 119 21 328l2 17q-71 -16 -121.5 -120t-50.5 -242z" />
<glyph unicode="&#xa3;" horiz-adv-x="1124" d="M59 791q0 37 10.5 48t41.5 15l62 4q34 0 36 8q-1 7 -2 11l-6 15q-39 102 -39 195q0 203 123 331t317 128q149 0 268 -89.5t119 -184.5q0 -45 -52.5 -86t-98.5 -41q-20 0 -83.5 70.5t-150.5 70.5q-81 0 -132.5 -56t-51.5 -145q0 -124 23 -181.5t73 -57.5q21 0 74 7 q29 3 52 5t42 2q42 0 58 -16t16 -60q0 -50 -21 -71q-22 -19 -92 -19h-61l-16 1l-23 1q-25 0 -34 -4.5t-11 -15.5q0 -8 19.5 -75t19.5 -126q0 -56 -14 -104q-6 -24 -15 -46t-23 -42l28 3l26 1q17 0 40.5 -3t59.5 -11q22 -4 55 -8.5t47 -4.5q104 0 171 75t67 193v25q0 26 6 40 t19 15q32 0 65 -76q15 -38 23 -81.5t8 -94.5q0 -159 -92.5 -264.5t-233.5 -105.5q-30 0 -69.5 8t-96.5 27q-108 36 -168 36q-48 0 -141 -38.5t-151 -38.5q-45 0 -66 15.5t-21 51.5v117q0 26 9 35.5t30 9.5l35 -1l29 -1q75 0 112 50t37 149q0 158 -24 231.5t-76 73.5l-43 -5 l-68 -4q-27 0 -37 17q-8 18 -8 72z" />
<glyph unicode="&#xa4;" horiz-adv-x="1241" d="M76 432l203 205q-39 53 -60 115q-10 32 -15 63.5t-5 69.5q0 39 4 67t16 64q20 63 60 117l-203 204l92 93l203 -203q53 40 116 61t134 21q69 0 133.5 -20.5t117.5 -61.5l203 203l94 -93l-204 -204q19 -26 33.5 -54.5t25.5 -62.5q20 -63 20 -131q0 -39 -4 -68t-16 -65 q-20 -63 -59 -115l204 -205l-94 -92l-203 205q-55 -40 -117.5 -61t-131.5 -21q-75 0 -137.5 21t-114.5 61l-203 -205zM332 885q0 -119 84 -204t207 -85q119 0 204.5 84.5t85.5 204.5q0 119 -85 205t-205 86t-205.5 -86.5t-85.5 -204.5z" />
<glyph unicode="&#xa5;" horiz-adv-x="1384" d="M35 739v62q0 17 3.5 20.5t18.5 5.5h293q-39 61 -68.5 115.5t-50.5 108.5h-170q-12 0 -19 6t-7 20v62q0 16 3.5 20t18.5 6h142q-16 57 -24.5 122.5t-8.5 137.5q0 60 10.5 81.5t36.5 21.5h229q21 0 30 -9.5t9 -33.5l-3 -51l-3 -70q0 -192 85.5 -358t152.5 -166q18 0 62 51 q23 28 42.5 57.5t42.5 71.5q53 99 75.5 177.5t22.5 154.5v11q0 20 -1 40.5t-4 41.5l-5 48q0 17 9 26t28 9h191q30 0 42.5 -31.5t12.5 -105.5q0 -48 -10 -101q-6 -34 -11 -57.5t-18 -67.5h135q14 0 21 -6t8 -20v-62q0 -15 -4.5 -19.5t-20.5 -6.5h-190q-17 -30 -41 -68 q-19 -30 -40 -63q-39 -60 -67 -93h334q14 0 21 -6t8 -20v-62q0 -15 -4.5 -19.5t-20.5 -6.5h-416q-99 -147 -146.5 -290.5t-47.5 -295.5l3 -59l3 -35q0 -17 -12 -26q-12 -7 -41 -7h-178q-32 0 -47 22q-13 24 -13 84q0 61 16 128.5t49 139.5q66 144 66 165q0 32 -89 125 l-46 49h-371q-12 0 -19 6t-7 20z" />
<glyph unicode="&#xa6;" d="M424 -350v758h178v-758h-178zM424 674v758h178v-758h-178z" />
<glyph unicode="&#xa7;" d="M72 829q0 85 37 145.5t118 100.5q-41 37 -62.5 86.5t-21.5 112.5q0 141 99 226t268 85q140 0 254.5 -58.5t114.5 -115.5q0 -39 -51.5 -111.5t-84.5 -72.5q-9 0 -84.5 75.5t-154.5 75.5q-26 0 -47 -6t-38 -20q-32 -26 -32 -66q0 -30 20.5 -53t96.5 -62l188 -100 q143 -74 206 -150t63 -171q0 -77 -41.5 -144t-112.5 -100q51 -41 76.5 -93t25.5 -114q0 -144 -109.5 -233t-289.5 -89q-160 0 -279.5 57.5t-119.5 121.5q0 39 50 113.5t72 74.5l105 -80q104 -80 192 -80q55 0 92 28.5t37 70.5q0 27 -15.5 48t-47.5 42l-281 151 q-133 74 -188 143.5t-55 161.5zM313 889q0 -42 39 -87t109 -83l178 -92l21 -13l20 -14q21 17 34 39t13 47q0 48 -39.5 95.5t-109.5 84.5l-177 92l-24 13l-19 14q-21 -15 -33 -39.5t-12 -56.5z" />
<glyph unicode="&#xa8;" d="M190 1485q0 51 34.5 86t84.5 35q49 0 84 -35.5t35 -85.5q0 -49 -35 -84t-84 -35t-84 34.5t-35 84.5zM633 1485q0 51 33.5 86t85.5 35q47 0 82.5 -35.5t35.5 -85.5q0 -49 -35 -84q-33 -35 -83 -35t-85 34q-34 36 -34 85z" />
<glyph unicode="&#xa9;" horiz-adv-x="1706" d="M113 731q0 143 57 279.5t162.5 243t236.5 161.5t283 55t286 -54.5t239.5 -161t160.5 -240.5t55 -283q0 -154 -55 -286q-27 -66 -66.5 -124.5t-91.5 -109.5q-107 -105 -243.5 -163t-284.5 -58q-76 0 -143 13t-137 43q-134 57 -240 162t-162.5 241t-56.5 282zM223 731 q0 -126 48 -240.5t138 -203.5t204.5 -138t240.5 -49q124 0 238 47.5t211 141.5q89 88 135.5 201t46.5 241q0 131 -46.5 244t-135.5 202.5t-204.5 137t-244.5 47.5q-131 0 -243 -46t-201 -136.5t-138 -207t-49 -241.5zM457 725q0 207 109.5 331t291.5 124q148 0 243 -77 q50 -40 77.5 -89.5t27.5 -109.5l-166 -1q-9 74 -60 114q-25 20 -56.5 30t-73.5 10q-98 0 -154.5 -86.5t-56.5 -239.5q0 -151 57.5 -234t163.5 -83q80 0 128.5 43.5t60.5 124.5h165q0 -65 -27.5 -120t-79.5 -97q-100 -82 -253 -82q-183 0 -290 119t-107 323z" />
<glyph unicode="&#xaa;" horiz-adv-x="760" d="M53 954q0 86 54.5 156.5t154.5 114.5q53 21 128 37.5t75 50.5q0 44 -40 79t-99 35q-40 0 -72.5 -15.5t-52.5 -45.5q-5 -8 -7 -13.5t-7 -22.5q-3 -21 -17 -21q-39 0 -68.5 31t-29.5 77q0 73 68.5 117.5t183.5 44.5q56 0 111.5 -14.5t96.5 -40.5q74 -45 105 -113 q15 -33 23 -83t8 -118q0 -259 19 -431l1 -15q0 -29 -13 -39t-52 -10l-48 2l-55 2q-16 0 -39 -1t-53 -4l-82 -5q-140 0 -216.5 63.5t-76.5 181.5zM250 987q0 -49 39 -83t102 -34q45 0 65.5 12t20.5 40v159q0 25 -15 38.5t-44 13.5q-65 0 -116.5 -42.5t-51.5 -103.5z" />
<glyph unicode="&#xab;" horiz-adv-x="1020" d="M84 596l3 13l9 17l240 361q6 10 14.5 16.5t16.5 6.5q6 0 14.5 -4t16.5 -11l96 -75l16 -17q6 -6 6 -14q0 -6 -4 -14l-12 -15l-236 -260l234 -283l9 -14q3 -3 3 -8q0 -7 -5 -13l-16 -16l-90 -71q-10 -9 -20 -13l-14 -4q-7 0 -12 5l-15 18l-242 358l-9 18zM524 596l3 14 l9 16l240 361q5 9 14 16t17 7q7 0 15 -3.5t16 -11.5l96 -75l16 -17q6 -6 6 -14q0 -6 -4 -14l-12 -15l-235 -260l233 -283l9 -13l3 -9q0 -7 -5 -13l-15 -16l-90 -71l-21 -14l-12 -3q-7 0 -13 5l-16 18l-242 359l-9 18z" />
<glyph unicode="&#xac;" horiz-adv-x="1706" d="M254 696v166h1198v-502h-166v336h-1032z" />
<glyph unicode="&#xad;" horiz-adv-x="680" d="M70 504q0 33 17 86.5t42 95.5q12 17 26 26q16 7 38 7h348q29 0 41 -6q10 -7 10 -27q0 -41 -19 -104t-38 -88q-10 -15 -24 -21q-8 -2 -17 -3t-29 -1h-342q-32 0 -42.5 6.5t-10.5 28.5z" />
<glyph unicode="&#xae;" horiz-adv-x="1706" d="M113 731q0 146 57 283t166 246q103 103 234.5 156.5t281.5 53.5q155 0 288 -55.5t242 -165.5q101 -103 156 -236t55 -282q0 -154 -55.5 -288t-161.5 -236.5t-242.5 -159.5t-281.5 -57q-146 0 -282 57t-241.5 164t-160.5 241t-55 279zM223 731q0 -65 11 -122t36 -117 q46 -112 135 -201.5t205 -140t234 -50.5q131 0 247 47t209 138q87 84 136 197.5t49 238.5q0 133 -45.5 247t-136 205t-205.5 140t-244 49q-130 0 -240.5 -45.5t-200.5 -136t-140 -208.5t-50 -241zM551 330v829h319q172 0 261.5 -57t89.5 -168q0 -89 -48 -149.5t-137 -79.5 l185 -375h-199l-164 346h-129v-346h-178zM729 786h117q98 0 145 30.5t47 96.5q0 68 -48 101t-152 33h-109v-261z" />
<glyph unicode="&#xaf;" d="M254 1444v72q0 13 9 22q5 4 11 6t17 2h477q25 0 34 -7t9 -23v-72q0 -24 -9.5 -32.5t-33.5 -8.5h-471q-26 0 -34.5 8t-8.5 33z" />
<glyph unicode="&#xb0;" horiz-adv-x="674" d="M43 1163q0 125 86 211t209 86q119 0 207 -87t88 -210q0 -119 -87 -207t-210 -88t-208 86t-85 209zM152 1165q0 -74 54.5 -130t131.5 -56q76 0 130 54t54 132q0 75 -53.5 130t-130.5 55q-76 0 -131 -54t-55 -131z" />
<glyph unicode="&#xb1;" horiz-adv-x="1706" d="M254 14v168h1198v-168h-1198zM254 707v165h514v334h170v-334h514v-165h-514v-334h-170v334h-514z" />
<glyph unicode="&#xb2;" horiz-adv-x="741" d="M57 676v12q0 73 36 144q17 33 45.5 69.5t64.5 71.5q62 59 157 129l25 18q59 49 78.5 81t19.5 67q0 47 -36 81.5t-87 34.5q-44 0 -85 -27t-72 -77l-20 -34q-14 -27 -25 -29l-11 1l-8 7l-39 66l-13 19q-19 29 -19 44q0 16 15 42q8 13 18.5 26.5t25.5 27.5q42 43 104 66.5 t136 23.5q128 0 211.5 -69t83.5 -179q0 -150 -276 -342l-30 -20q-52 -37 -76 -62.5t-24 -44.5q0 -6 6.5 -9t22.5 -3l32 5l48 5q31 0 81.5 -12t67.5 -12q46 0 67 21t21 63q0 13 -4 25l-4 16l2 2q18 0 48 -48t30 -102q0 -75 -52 -122.5t-135 -47.5q-15 0 -39.5 3t-63.5 11 q-74 15 -116 15q-45 0 -99 -15.5t-67 -15.5q-27 0 -37 11q-8 13 -8 63z" />
<glyph unicode="&#xb3;" horiz-adv-x="741" d="M49 725q0 7 5 17t13 19l101 118l9 7l7 3q4 -2 6.5 -3.5t13.5 -11.5q63 -61 140 -61q51 0 83 29.5t32 75.5q0 48 -26 82t-81 53q-35 12 -100.5 18t-65.5 29q0 21 65 74l54 47q73 63 100 95t27 48q0 8 -19 16.5t-48 8.5q-83 0 -184 -33l-34 -8q-10 0 -14.5 3.5t-7.5 14.5 l-25 117l-1 7l-1 9q0 15 9 23q9 6 36 6h23h420q25 0 35 -8t10 -27q0 -54 -14 -92q-12 -38 -46 -86q-29 -42 -81 -92q-48 -45 -48 -54q0 -6 36 -21q35 -13 61 -30q53 -35 79.5 -89.5t26.5 -125.5q0 -131 -93 -217t-233 -86q-93 0 -181.5 46.5t-88.5 78.5z" />
<glyph unicode="&#xb4;" d="M244 1413q0 14 8.5 21.5t34.5 19.5l387 158l8 3q24 9 43 11q33 0 57.5 -41t24.5 -92q0 -22 -14 -34.5t-59 -26.5l-406 -113l-14 -4l-17 -2q-18 0 -36 34q-17 36 -17 66z" />
<glyph unicode="&#xb5;" horiz-adv-x="1208" d="M-92 -430l297 1511h229l-125 -635l-9 -55l-3 -49q0 -97 46.5 -147t135.5 -50q121 0 193 88t112 293l109 555h225l-145 -739l-15 -82l-4 -51q0 -36 15 -51t53 -15h20q9 0 14 2l-32 -159q-28 -8 -69 -13l-81 -4q-74 0 -111.5 31.5t-37.5 93.5v15q-40 -66 -108 -104 t-146 -38q-42 0 -75.5 6t-62.5 20q-56 26 -97 83l-99 -506h-229z" />
<glyph unicode="&#xb6;" d="M55 1130q0 158 107 253.5t284 95.5h523v-99h-117v-1380h-129v1380h-168v-1380h-131v784q-83 0 -149.5 25.5t-119.5 75.5q-100 95 -100 245z" />
<glyph unicode="&#xb8;" d="M319 -319q0 15 11 24.5t26 9.5l76 -31q73 -32 141 -32q47 0 74 20q27 18 27 54q0 32 -30 49q-32 16 -91 16h-41q-15 0 -19 4.5t-5 8.5t-1 16l2 9l3 15l18 164h76l-13 -143l29 3l47 1q80 0 132.5 -39.5t52.5 -101.5q0 -69 -64 -109.5t-174 -40.5q-108 0 -192.5 32 t-84.5 71z" />
<glyph unicode="&#xb9;" horiz-adv-x="741" d="M201 1450q0 27 73 58.5t148 31.5q37 0 55.5 -9.5t18.5 -31.5l-7 -42q-16 -84 -25 -173t-9 -172q0 -215 40 -431l7 -42v-6q0 -11 -5 -15.5t-18 -5.5h-172q-19 0 -25 11t-6 63v16q0 59 3.5 183t3.5 172l8 252q0 54 -45 93t-45 48z" />
<glyph unicode="&#xba;" horiz-adv-x="815" d="M53 1141q0 198 97.5 317t259.5 119q149 0 243.5 -114.5t94.5 -303.5q0 -204 -97 -327t-256 -123q-152 0 -247 119t-95 313zM236 1174q0 -113 45.5 -180.5t121.5 -67.5q71 0 118.5 72.5t47.5 185.5q0 108 -45.5 173.5t-117.5 65.5q-77 0 -123.5 -68.5t-46.5 -180.5z" />
<glyph unicode="&#xbb;" horiz-adv-x="1020" d="M80 299q0 6 4 13l12 16l236 260l-234 282l-9 14l-3 11l5 11l15 16l93 71l19 13l13 4q6 0 14 -7l15 -16l240 -359l9 -18l3 -18l-3 -14l-9 -17l-240 -360q-5 -9 -14 -16t-17 -7l-14 3l-17 12l-96 75l-17 16q-3 5 -5 15zM516 299q0 6 4 13l12 16l236 260l-231 282l-10 14 l-3 11q3 9 5 12l13 14l93 72l19 12l14 5q6 0 13 -7q8 -5 15 -16l240 -358l9 -19l3 -18l-3 -14l-9 -17l-240 -360q-5 -9 -14 -16t-16 -7l-15 3l-17 12l-93 75l-19 17q-6 8 -6 14z" />
<glyph unicode="&#xbc;" horiz-adv-x="1757" d="M190 1452q0 27 69.5 56.5t143.5 29.5q35 0 52.5 -9t17.5 -30l-6 -39q-33 -162 -33 -323q0 -198 39 -402l6 -39v-6q0 -9 -3.5 -12.5t-16.5 -5.5h-164q-18 0 -26 9q-5 10 -5 60v15q0 72 1 112q5 199 5 219l6 234q0 52 -42.5 88t-43.5 43zM391 8l2 12l6 15l795 1462 q12 23 30 36q5 4 13 7q13 6 27 6h71q16 0 24.5 -8t8.5 -20l-2 -12l-6 -15l-795 -1462q-11 -21 -30 -34t-39 -13h-72q-16 0 -24.5 6.5t-8.5 19.5zM1102 311q0 75 46 167q23 47 58.5 99.5t87.5 116.5q83 104 123 138t74 34h14l133 -8q6 0 11 -3q4 -6 4 -9q0 -11 -66 -67 q-34 -28 -58 -50q-29 -26 -48 -45q-85 -81 -138 -162.5t-53 -122.5q0 -6 6 -11q6 -3 25 -3q27 0 59.5 6t46.5 12q24 13 40 64l12 35q29 78 83.5 136t92.5 58l4 -3l2 -9l-24 -79q-23 -77 -23 -142q0 -36 18 -51q9 -8 28.5 -13.5t43.5 -5.5q16 0 25 -7q6 -4 8 -19v-109 q0 -11 -6 -18t-17 -7l-39 6q-17 3 -29.5 5t-25.5 2q-30 0 -42 -35q-5 -16 -8 -57t-3 -107v-8q0 -24 -4.5 -30.5t-18.5 -8.5h-135q-12 0 -20 6q-5 7 -5 25q0 47 12 115l13 77q0 15 -8.5 22t-40.5 7q-51 0 -117 -10l-82 -9q-33 0 -46 17.5t-13 60.5z" />
<glyph unicode="&#xbd;" horiz-adv-x="1757" d="M190 1452q0 27 69.5 56.5t143.5 29.5q35 0 52.5 -9t17.5 -30l-6 -39q-33 -162 -33 -323q0 -198 39 -402l6 -39v-6q0 -9 -3.5 -12.5t-16.5 -5.5h-164q-18 0 -26 9q-5 10 -5 60v15q0 72 1 112q5 199 5 219l6 234q0 52 -42.5 88t-43.5 43zM391 8l2 12l6 15l795 1462 q12 23 30 36q5 4 13 7q13 6 27 6h71q16 0 24.5 -8t8.5 -20l-2 -12l-6 -15l-795 -1462q-11 -21 -30 -34t-39 -13h-72q-16 0 -24.5 6.5t-8.5 19.5zM1106 59v11q0 70 34 135t105 133q42 39 109 89l65 48q55 42 73.5 71.5t18.5 63.5q0 46 -34 78.5t-82 32.5q-43 0 -82 -26 q-37 -23 -68 -72l-20 -34q-13 -24 -25 -26l-10 2l-6 6l-37 62l-12 17q-17 25 -19 42q0 8 3 17.5t11 22.5q15 24 41 50q41 39 101 61.5t129 22.5q124 0 202 -64.5t78 -166.5q0 -142 -270 -324l-20 -14q-48 -31 -71.5 -56.5t-23.5 -43.5q0 -6 5 -9l20 -2l31 4l45 5 q30 0 80 -12q18 -4 37 -7.5t28 -3.5q42 0 62 18.5t20 59.5l-3 24l-3 15l2 2q17 0 45.5 -46t28.5 -95q0 -71 -49.5 -114.5t-128.5 -43.5q-31 0 -102.5 13t-106.5 13q-22 0 -44.5 -3t-47 -10t-41 -10.5t-25.5 -4.5q-26 0 -34.5 10.5t-8.5 58.5z" />
<glyph unicode="&#xbe;" horiz-adv-x="1759" d="M47 776q0 7 5 16.5t14 18.5l94 109l9 7l7 3q3 -2 5 -3q8 -5 14 -11q61 -58 135 -58q49 0 78.5 27.5t29.5 70.5q0 47 -24.5 78t-77.5 49q-29 11 -96 17q-62 0 -62 26q0 17 60 68l53 45q71 62 96 90t25 43q0 11 -20 18t-46 7q-79 0 -173 -31l-32 -8q-10 0 -14.5 3.5 t-7.5 14.5l-23 109l-1 5l-1 9q0 15 8.5 21t34.5 6h21h401q25 0 34 -7t9 -24q0 -48 -13 -86q-7 -21 -16.5 -38.5t-27.5 -43.5q-33 -43 -77 -85t-44 -50q0 -6 33 -21q35 -14 57 -28q50 -34 77 -85q11 -23 18 -53t7 -63q0 -121 -89 -202t-222 -81q-90 0 -174 44t-84 73zM391 8 l2 12l6 15l795 1462q12 23 30 36q5 4 13 7q13 6 27 6h71q16 0 24.5 -8t8.5 -20l-2 -12l-6 -15l-795 -1462q-11 -21 -30 -34t-39 -13h-72q-16 0 -24.5 6.5t-8.5 19.5zM1102 311q0 75 46 167q23 47 58.5 99.5t87.5 116.5q83 104 123 138t74 34h14l133 -8q6 0 11 -3q4 -6 4 -9 q0 -11 -66 -67q-34 -28 -58 -50q-29 -26 -48 -45q-85 -81 -138 -162.5t-53 -122.5q0 -6 6 -11q6 -3 25 -3q27 0 59.5 6t46.5 12q24 13 40 64l12 35q29 78 83.5 136t92.5 58l4 -3l2 -9l-24 -79q-23 -77 -23 -142q0 -36 18 -51q9 -8 28.5 -13.5t43.5 -5.5q16 0 25 -7 q6 -4 8 -19v-109q0 -11 -6 -18t-17 -7l-39 6q-17 3 -29.5 5t-25.5 2q-30 0 -42 -35q-5 -16 -8 -57t-3 -107v-8q0 -24 -4.5 -30.5t-18.5 -8.5h-135q-12 0 -20 6q-5 7 -5 25q0 47 12 115l13 77q0 15 -8.5 22t-40.5 7q-51 0 -117 -10l-82 -9q-33 0 -46 17.5t-13 60.5z" />
<glyph unicode="&#xbf;" horiz-adv-x="864" d="M47 389q0 112 36 203t112 162q52 49 118 91l67 43q28 25 28 79q0 26 3 44.5t7 27t25 13t41 5t32 0.5q65 0 78.5 -9.5t13.5 -37.5v-195q0 -38 -12 -65.5t-45 -59.5l-83 -69q-155 -123 -155 -224q0 -73 41 -123.5t101 -50.5q72 0 144 97q13 19 17 20q9 0 31 -18t74 -76 l5 -6q42 -45 42 -64q0 -58 -99.5 -130.5t-224.5 -72.5q-170 0 -283.5 118.5t-113.5 297.5zM289 1409q0 87 63 150t150 63q90 0 151.5 -61t61.5 -152q0 -89 -62.5 -150t-150.5 -61q-90 0 -151.5 61t-61.5 150z" />
<glyph unicode="&#xc0;" horiz-adv-x="1350" d="M68 426q0 223 63.5 432t187.5 389q98 143 216 240.5t180 97.5q43 0 117 -57.5t147 -153.5q136 -177 199 -397t63 -533q0 -124 -12.5 -238.5t-26.5 -156.5q-9 -30 -25 -39.5t-59 -9.5h-237q-25 0 -36.5 3.5t-13.5 12.5q0 10 20 57q45 114 68 211t23 177q0 73 -28 101 t-101 28q-72 0 -156.5 -15.5t-153 -40t-98.5 -63t-30 -102.5q0 -105 57 -226t57 -127q0 -9 -7 -12.5t-27 -3.5h-277q-54 0 -82 109q-14 57 -21 133t-7 184zM408 852q0 -29 9 -41q10 -10 38 -10l101 21q104 22 214 22q95 0 121.5 12t26.5 49q0 41 -19.5 96.5t-54.5 116.5 q-49 85 -79 114q-29 30 -58 30q-34 0 -77.5 -40t-101.5 -124q-61 -90 -90.5 -150.5t-29.5 -95.5zM473 1874q0 52 23 92.5t57 40.5q10 0 23 -4q17 -3 30 -10l385 -158q28 -11 36 -20q9 -8 9 -21q0 -32 -17.5 -66t-37.5 -34l-16 1q-10 2 -15 5l-404 113q-43 12 -58 24.5 t-15 36.5z" />
<glyph unicode="&#xc1;" horiz-adv-x="1350" d="M68 426q0 223 63.5 432t187.5 389q98 143 216 240.5t180 97.5q43 0 117 -57.5t147 -153.5q136 -177 199 -397t63 -533q0 -124 -12.5 -238.5t-26.5 -156.5q-9 -30 -25 -39.5t-59 -9.5h-237q-25 0 -36.5 3.5t-13.5 12.5q0 10 20 57q45 114 68 211t23 177q0 73 -28 101 t-101 28q-72 0 -156.5 -15.5t-153 -40t-98.5 -63t-30 -102.5q0 -105 57 -226t57 -127q0 -9 -7 -12.5t-27 -3.5h-277q-54 0 -82 109q-14 57 -21 133t-7 184zM408 852q0 -29 9 -41q10 -10 38 -10l101 21q104 22 214 22q95 0 121.5 12t26.5 49q0 41 -19.5 96.5t-54.5 116.5 q-49 85 -79 114q-29 30 -58 30q-34 0 -77.5 -40t-101.5 -124q-61 -90 -90.5 -150.5t-29.5 -95.5zM467 1794q0 14 8.5 21.5t34.5 19.5l387 158l8 3q24 9 43 11q33 0 57.5 -41t24.5 -92q0 -22 -14 -34.5t-59 -26.5l-406 -113l-14 -4l-17 -2q-18 0 -36 34q-17 36 -17 66z" />
<glyph unicode="&#xc2;" horiz-adv-x="1350" d="M68 426q0 223 63.5 432t187.5 389q98 143 216 240.5t180 97.5q43 0 117 -57.5t147 -153.5q136 -177 199 -397t63 -533q0 -124 -12.5 -238.5t-26.5 -156.5q-9 -30 -25 -39.5t-59 -9.5h-237q-25 0 -36.5 3.5t-13.5 12.5q0 10 20 57q45 114 68 211t23 177q0 73 -28 101 t-101 28q-72 0 -156.5 -15.5t-153 -40t-98.5 -63t-30 -102.5q0 -105 57 -226t57 -127q0 -9 -7 -12.5t-27 -3.5h-277q-54 0 -82 109q-14 57 -21 133t-7 184zM408 852q0 -29 9 -41q10 -10 38 -10l101 21q104 22 214 22q95 0 121.5 12t26.5 49q0 41 -19.5 96.5t-54.5 116.5 q-49 85 -79 114q-29 30 -58 30q-34 0 -77.5 -40t-101.5 -124q-61 -90 -90.5 -150.5t-29.5 -95.5zM436 1718l6 12l15 20l198 230l9 12q18 23 59 23h65q41 0 64 -27l10 -12l192 -227l15 -21l6 -12q0 -7 -33.5 -13.5t-87.5 -6.5q-20 0 -34.5 6t-30.5 25l-134 157l-133 -157 q-12 -18 -27.5 -24.5t-49.5 -6.5q-46 0 -77 6t-32 16z" />
<glyph unicode="&#xc3;" horiz-adv-x="1350" d="M68 426q0 223 63.5 432t187.5 389q98 143 216 240.5t180 97.5q43 0 117 -57.5t147 -153.5q136 -177 199 -397t63 -533q0 -124 -12.5 -238.5t-26.5 -156.5q-9 -30 -25 -39.5t-59 -9.5h-237q-25 0 -36.5 3.5t-13.5 12.5q0 10 20 57q45 114 68 211t23 177q0 73 -28 101 t-101 28q-72 0 -156.5 -15.5t-153 -40t-98.5 -63t-30 -102.5q0 -105 57 -226t57 -127q0 -9 -7 -12.5t-27 -3.5h-277q-54 0 -82 109q-14 57 -21 133t-7 184zM381 1757q0 96 59 158.5t154 62.5q78 0 195 -42t157 -42q66 0 93 49t32 50h39q8 0 13 -6q4 -3 5 -17q0 -97 -59 -159 t-154 -62q-78 0 -195 43t-155 43q-65 0 -93.5 -48.5t-33.5 -49.5h-37q-11 0 -16 5zM408 852q0 -29 9 -41q10 -10 38 -10l101 21q104 22 214 22q95 0 121.5 12t26.5 49q0 41 -19.5 96.5t-54.5 116.5q-49 85 -79 114q-29 30 -58 30q-34 0 -77.5 -40t-101.5 -124 q-61 -90 -90.5 -150.5t-29.5 -95.5z" />
<glyph unicode="&#xc4;" horiz-adv-x="1350" d="M68 426q0 223 63.5 432t187.5 389q98 143 216 240.5t180 97.5q43 0 117 -57.5t147 -153.5q136 -177 199 -397t63 -533q0 -124 -12.5 -238.5t-26.5 -156.5q-9 -30 -25 -39.5t-59 -9.5h-237q-25 0 -36.5 3.5t-13.5 12.5q0 10 20 57q45 114 68 211t23 177q0 73 -28 101 t-101 28q-72 0 -156.5 -15.5t-153 -40t-98.5 -63t-30 -102.5q0 -105 57 -226t57 -127q0 -9 -7 -12.5t-27 -3.5h-277q-54 0 -82 109q-14 57 -21 133t-7 184zM408 852q0 -29 9 -41q10 -10 38 -10l101 21q104 22 214 22q95 0 121.5 12t26.5 49q0 41 -19.5 96.5t-54.5 116.5 q-49 85 -79 114q-29 30 -58 30q-34 0 -77.5 -40t-101.5 -124q-61 -90 -90.5 -150.5t-29.5 -95.5zM413 1866q0 51 34.5 86t84.5 35q49 0 84 -35.5t35 -85.5q0 -49 -35 -84t-84 -35t-84 34.5t-35 84.5zM856 1866q0 51 33.5 86t85.5 35q47 0 82.5 -35.5t35.5 -85.5 q0 -49 -35 -84q-33 -35 -83 -35t-85 34q-34 36 -34 85z" />
<glyph unicode="&#xc5;" horiz-adv-x="1350" d="M68 387q0 204 63.5 395t187.5 355q97 128 214.5 216.5t181.5 88.5q45 0 117 -51t147 -140q136 -160 199 -361.5t63 -486.5q0 -112 -12.5 -216.5t-26.5 -141.5q-9 -27 -25 -37q-16 -8 -59 -8h-237q-24 0 -37 3t-13 11q0 10 20 54q91 212 91 352q0 65 -27 92 q-27 25 -102 25q-39 0 -76.5 -3t-83.5 -11q-82 -13 -149.5 -35t-98 -58.5t-30.5 -93.5q0 -96 57 -206.5t57 -115.5q0 -7 -6.5 -10.5t-27.5 -3.5h-277q-53 0 -82 99q-14 51 -21 121t-7 167zM408 776q0 -26 9.5 -36.5t35.5 -10.5l103 19q51 10 102.5 15t111.5 5 q101 0 124.5 11t23.5 46q0 37 -19.5 87.5t-54.5 105.5q-48 75 -79 103q-15 15 -28.5 21.5t-29.5 6.5q-30 0 -68.5 -30t-87.5 -89q-67 -88 -107 -155q-36 -63 -36 -99zM514 1690q0 84 59 143t144 59q84 0 143.5 -59t59.5 -143q0 -81 -60 -142t-143 -61q-85 0 -144 59t-59 144 zM600 1686q0 -49 33 -83t84 -34q48 0 82.5 33.5t34.5 83.5q0 48 -34 82t-83 34q-48 0 -82.5 -34t-34.5 -82z" />
<glyph unicode="&#xc6;" horiz-adv-x="1874" d="M76 403q0 218 54 425t157 372q94 155 214.5 258t194.5 103h1102q18 0 26 -5t9 -18l-1 -11l-1 -5l-107 -240q-6 -15 -12.5 -22t-17.5 -9q-4 2 -7 3q-9 4 -20 11q-124 74 -233 74q-121 0 -190.5 -72.5t-69.5 -199.5q0 -42 16.5 -70t40.5 -28q30 0 135 45t182 45q71 0 93 -8 t22 -27l-1 -8l-3 -10l-86 -244l-3 -8q-7 -25 -18 -27l-55 16q-53 17 -98 17q-99 0 -162 -69.5t-63 -180.5q0 -124 62.5 -196t168.5 -72q114 0 254 98q39 27 51 29q9 0 17 -7q4 -4 14 -22l121 -274l4 -15l2 -10q0 -21 -20 -31t-58 -10h-784q-68 0 -80.5 10.5t-12.5 65.5v403 q0 62 -33 87.5t-116 25.5q-169 0 -276 -60.5t-107 -158.5q0 -97 58.5 -222.5t58.5 -132.5q0 -6 -10 -12l-25 -4h-12h-252q-64 0 -93.5 95.5t-29.5 305.5zM418 844q0 -20 5.5 -30.5t18.5 -12.5q20 0 113 25.5t176 25.5l70 -3l51 -3q32 0 43.5 13.5t11.5 68.5v43q0 99 10 199 l11 112q0 32 -12 52t-31 20q-58 0 -145 -55.5t-160 -145.5q-66 -81 -114 -176t-48 -133z" />
<glyph unicode="&#xc7;" horiz-adv-x="1237" d="M70 786q0 349 177 574t449 225q159 0 260 -72.5t101 -185.5q0 -74 -50 -125t-122 -51h-8q-16 77 -65.5 118.5t-127.5 41.5q-146 0 -243 -136t-97 -344q0 -226 113 -372t284 -146q93 0 173.5 43.5t117.5 112.5q14 24 22.5 46t15.5 51l11 48q17 0 40.5 -65.5t23.5 -149.5 q0 -188 -130 -308q-61 -55 -138 -86t-167 -31l-10 -109l29 3l47 1q80 0 132.5 -39.5t52.5 -101.5q0 -69 -64 -109.5t-174 -40.5q-108 0 -192.5 32t-84.5 71q0 15 11 24.5t26 9.5l76 -31q73 -32 141 -32q47 0 74 20q27 18 27 54q0 32 -30 49q-32 16 -91 16h-41q-15 0 -19 4.5 t-5 8.5t-1 16l2 9l3 15l14 130q-121 0 -221.5 56.5t-178.5 161.5q-163 220 -163 594z" />
<glyph unicode="&#xc8;" horiz-adv-x="1163" d="M127 649q0 219 20 412q11 104 24 186.5t33 167.5t39.5 115.5t49.5 30.5h741q26 0 36 -5t11 -18l-1 -9l-3 -7l-110 -240q-10 -18 -15.5 -23.5t-15.5 -7.5q-4 2 -7 3q-9 4 -20 11q-128 74 -243 74q-125 0 -198 -72t-73 -200q0 -44 17 -71t45 -27q30 0 138 45t185 45 q80 0 101 -8q22 -6 22 -27l-1 -7l-3 -11l-88 -244l-6 -15q-6 -19 -17 -20l-57 16q-56 17 -102 17q-102 0 -168 -70t-66 -180q0 -127 65 -197.5t183 -70.5q95 0 202 63l107 64q9 0 16 -6.5t15 -22.5l127 -275l4 -13l2 -11q0 -21 -19.5 -31t-60.5 -10h-819q-44 0 -57 13 q-11 13 -19 76q-4 36 -7 85.5t-3 119.5zM395 1874q0 52 23 92.5t57 40.5q10 0 23 -4q17 -3 30 -10l385 -158q28 -11 36 -20q9 -8 9 -21q0 -32 -17.5 -66t-37.5 -34l-16 1q-10 2 -15 5l-404 113q-43 12 -58 24.5t-15 36.5z" />
<glyph unicode="&#xc9;" horiz-adv-x="1163" d="M127 649q0 219 20 412q11 104 24 186.5t33 167.5t39.5 115.5t49.5 30.5h741q26 0 36 -5t11 -18l-1 -9l-3 -7l-110 -240q-10 -18 -15.5 -23.5t-15.5 -7.5q-4 2 -7 3q-9 4 -20 11q-128 74 -243 74q-125 0 -198 -72t-73 -200q0 -44 17 -71t45 -27q30 0 138 45t185 45 q80 0 101 -8q22 -6 22 -27l-1 -7l-3 -11l-88 -244l-6 -15q-6 -19 -17 -20l-57 16q-56 17 -102 17q-102 0 -168 -70t-66 -180q0 -127 65 -197.5t183 -70.5q95 0 202 63l107 64q9 0 16 -6.5t15 -22.5l127 -275l4 -13l2 -11q0 -21 -19.5 -31t-60.5 -10h-819q-44 0 -57 13 q-11 13 -19 76q-4 36 -7 85.5t-3 119.5zM389 1794q0 14 8.5 21.5t34.5 19.5l387 158l8 3q24 9 43 11q33 0 57.5 -41t24.5 -92q0 -22 -14 -34.5t-59 -26.5l-406 -113l-14 -4l-17 -2q-18 0 -36 34q-17 36 -17 66z" />
<glyph unicode="&#xca;" horiz-adv-x="1163" d="M127 649q0 219 20 412q11 104 24 186.5t33 167.5t39.5 115.5t49.5 30.5h741q26 0 36 -5t11 -18l-1 -9l-3 -7l-110 -240q-10 -18 -15.5 -23.5t-15.5 -7.5q-4 2 -7 3q-9 4 -20 11q-128 74 -243 74q-125 0 -198 -72t-73 -200q0 -44 17 -71t45 -27q30 0 138 45t185 45 q80 0 101 -8q22 -6 22 -27l-1 -7l-3 -11l-88 -244l-6 -15q-6 -19 -17 -20l-57 16q-56 17 -102 17q-102 0 -168 -70t-66 -180q0 -127 65 -197.5t183 -70.5q95 0 202 63l107 64q9 0 16 -6.5t15 -22.5l127 -275l4 -13l2 -11q0 -21 -19.5 -31t-60.5 -10h-819q-44 0 -57 13 q-11 13 -19 76q-4 36 -7 85.5t-3 119.5zM358 1718l6 12l15 20l198 230l9 12q18 23 59 23h65q41 0 64 -27l10 -12l192 -227l15 -21l6 -12q0 -7 -33.5 -13.5t-87.5 -6.5q-20 0 -34.5 6t-30.5 25l-134 157l-133 -157q-12 -18 -27.5 -24.5t-49.5 -6.5q-46 0 -77 6t-32 16z" />
<glyph unicode="&#xcb;" horiz-adv-x="1163" d="M127 649q0 219 20 412q11 104 24 186.5t33 167.5t39.5 115.5t49.5 30.5h741q26 0 36 -5t11 -18l-1 -9l-3 -7l-110 -240q-10 -18 -15.5 -23.5t-15.5 -7.5q-4 2 -7 3q-9 4 -20 11q-128 74 -243 74q-125 0 -198 -72t-73 -200q0 -44 17 -71t45 -27q30 0 138 45t185 45 q80 0 101 -8q22 -6 22 -27l-1 -7l-3 -11l-88 -244l-6 -15q-6 -19 -17 -20l-57 16q-56 17 -102 17q-102 0 -168 -70t-66 -180q0 -127 65 -197.5t183 -70.5q95 0 202 63l107 64q9 0 16 -6.5t15 -22.5l127 -275l4 -13l2 -11q0 -21 -19.5 -31t-60.5 -10h-819q-44 0 -57 13 q-11 13 -19 76q-4 36 -7 85.5t-3 119.5zM335 1866q0 51 34.5 86t84.5 35q49 0 84 -35.5t35 -85.5q0 -49 -35 -84t-84 -35t-84 34.5t-35 84.5zM778 1866q0 51 33.5 86t85.5 35q47 0 82.5 -35.5t35.5 -85.5q0 -49 -35 -84q-33 -35 -83 -35t-85 34q-34 36 -34 85z" />
<glyph unicode="&#xcc;" horiz-adv-x="672" d="M135 1874q0 52 23 92.5t57 40.5q10 0 23 -4q17 -3 30 -10l385 -158q28 -11 36 -20q9 -8 9 -21q0 -32 -17.5 -66t-37.5 -34l-16 1q-10 2 -15 5l-404 113q-43 12 -58 24.5t-15 36.5zM152 586q0 83 3 163t7 172t4 142q0 101 14 214q5 39 29 189q9 64 21.5 79.5t50.5 15.5 h221q25 0 36 -5t11 -16q0 -18 -17 -89q-75 -336 -75 -642q0 -173 17 -343t53 -351q3 -14 8 -43.5t6 -42.5q0 -15 -13.5 -22t-40.5 -7h-219q-38 0 -52 7.5t-23 33.5q-17 50 -24 98.5t-7 100.5q0 42 -3 112q-7 164 -7 234z" />
<glyph unicode="&#xcd;" horiz-adv-x="672" d="M129 1794q0 14 8.5 21.5t34.5 19.5l387 158l8 3q24 9 43 11q33 0 57.5 -41t24.5 -92q0 -22 -14 -34.5t-59 -26.5l-406 -113l-14 -4l-17 -2q-18 0 -36 34q-17 36 -17 66zM152 586q0 83 3 163t7 172t4 142q0 101 14 214q5 39 29 189q9 64 21.5 79.5t50.5 15.5h221 q25 0 36 -5t11 -16q0 -18 -17 -89q-75 -336 -75 -642q0 -173 17 -343t53 -351q3 -14 8 -43.5t6 -42.5q0 -15 -13.5 -22t-40.5 -7h-219q-38 0 -52 7.5t-23 33.5q-17 50 -24 98.5t-7 100.5q0 42 -3 112q-7 164 -7 234z" />
<glyph unicode="&#xce;" horiz-adv-x="672" d="M98 1718l6 12l15 20l198 230l9 12q18 23 59 23h65q41 0 64 -27l10 -12l192 -227l15 -21l6 -12q0 -7 -33.5 -13.5t-87.5 -6.5q-20 0 -34.5 6t-30.5 25l-134 157l-133 -157q-12 -18 -27.5 -24.5t-49.5 -6.5q-46 0 -77 6t-32 16zM152 586q0 83 3 163t7 172t4 142 q0 101 14 214q5 39 29 189q9 64 21.5 79.5t50.5 15.5h221q25 0 36 -5t11 -16q0 -18 -17 -89q-75 -336 -75 -642q0 -173 17 -343t53 -351q3 -14 8 -43.5t6 -42.5q0 -15 -13.5 -22t-40.5 -7h-219q-38 0 -52 7.5t-23 33.5q-17 50 -24 98.5t-7 100.5q0 42 -3 112q-7 164 -7 234z " />
<glyph unicode="&#xcf;" horiz-adv-x="672" d="M75 1866q0 51 34.5 86t84.5 35q49 0 84 -35.5t35 -85.5q0 -49 -35 -84t-84 -35t-84 34.5t-35 84.5zM152 586q0 83 3 163t7 172t4 142q0 101 14 214q5 39 29 189q9 64 21.5 79.5t50.5 15.5h221q25 0 36 -5t11 -16q0 -18 -17 -89q-75 -336 -75 -642q0 -173 17 -343t53 -351 q3 -14 8 -43.5t6 -42.5q0 -15 -13.5 -22t-40.5 -7h-219q-38 0 -52 7.5t-23 33.5q-17 50 -24 98.5t-7 100.5q0 42 -3 112q-7 164 -7 234zM518 1866q0 51 33.5 86t85.5 35q47 0 82.5 -35.5t35.5 -85.5q0 -49 -35 -84q-33 -35 -83 -35t-85 34q-34 36 -34 85z" />
<glyph unicode="&#xd0;" horiz-adv-x="1294" d="M72 700q0 385 208.5 636t528.5 251q159 0 254.5 -67t95.5 -179q0 -75 -48 -125.5t-118 -50.5l-29 3l-34 10v4q0 51 -44 81.5t-122 30.5q-167 0 -279 -157.5t-112 -403.5q0 -201 84 -321.5t225 -120.5q104 0 170 57t66 152q0 86 -120 173q-30 21 -30 27q2 8 4 10l9 7 l290 127l25 10q18 0 26.5 -10.5t14.5 -41.5l63 -353l9 -60l3 -47q0 -168 -128 -267.5t-349 -99.5q-304 0 -483.5 196.5t-179.5 528.5zM441 1974q0 19 9 34t21 15q21 0 38 -36q15 -36 24 -48q26 -34 75.5 -52.5t120.5 -18.5q67 0 116 18t81 56q10 13 24 47t35 34q9 0 20 -15 q9 -15 9 -34q0 -107 -85 -184.5t-210 -77.5q-118 0 -198 78.5t-80 183.5z" />
<glyph unicode="&#xd1;" horiz-adv-x="1470" d="M158 715q0 120 3.5 279.5t3.5 175.5q0 76 6 143.5t17 129.5l5 36q11 82 49 82h182q57 0 102 -42t144 -186q125 -178 235 -387t127 -209q10 0 18 27q3 14 5 31.5t2 40.5q0 352 -80 660l-10 46q0 8 9.5 13.5t35.5 5.5h188q24 0 35.5 -13.5t17.5 -51.5q12 -76 18 -133 q11 -101 11 -188q0 -79 3 -162q9 -248 9 -284q0 -84 -2 -148q-7 -224 -7 -227q0 -82 -5.5 -133.5t-17.5 -128.5l-2 -11q-12 -81 -72 -81h-197l-30 3q-8 3 -13 12l-35 112q-26 88 -43 141q-6 19 -30 90q-97 290 -221 501.5t-173 211.5q-24 0 -35.5 -31t-11.5 -100 q0 -436 84 -832l13 -69q0 -23 -12 -32q-14 -7 -48 -7h-194q-34 0 -46 18q-10 18 -18 75q-7 72 -10.5 130.5t-3.5 105.5q0 56 -3 184t-3 202zM443 1757q0 96 59 158.5t154 62.5q78 0 195 -42t157 -42q66 0 93 49t32 50h39q8 0 13 -6q4 -3 5 -17q0 -97 -59 -159t-154 -62 q-78 0 -195 43t-155 43q-65 0 -93.5 -48.5t-33.5 -49.5h-37q-11 0 -16 5z" />
<glyph unicode="&#xd2;" horiz-adv-x="1425" d="M84 532q0 203 57 408.5t162 372.5q84 131 190.5 202.5t221.5 71.5t213 -69.5t200 -221.5q97 -143 151 -335.5t54 -397.5q0 -315 -154 -452.5t-513 -137.5q-306 0 -444 132.5t-138 426.5zM393 653q0 -184 72.5 -261t249.5 -77q165 0 241 85t76 272q0 253 -99.5 440.5 t-217.5 187.5q-128 0 -225 -191t-97 -456zM512 1874q0 52 23 92.5t57 40.5q10 0 23 -4q17 -3 30 -10l385 -158q28 -11 36 -20q9 -8 9 -21q0 -32 -17.5 -66t-37.5 -34l-16 1q-10 2 -15 5l-404 113q-43 12 -58 24.5t-15 36.5z" />
<glyph unicode="&#xd3;" horiz-adv-x="1425" d="M84 532q0 203 57 408.5t162 372.5q84 131 190.5 202.5t221.5 71.5t213 -69.5t200 -221.5q97 -143 151 -335.5t54 -397.5q0 -315 -154 -452.5t-513 -137.5q-306 0 -444 132.5t-138 426.5zM393 653q0 -184 72.5 -261t249.5 -77q165 0 241 85t76 272q0 253 -99.5 440.5 t-217.5 187.5q-128 0 -225 -191t-97 -456zM506 1794q0 14 8.5 21.5t34.5 19.5l387 158l8 3q24 9 43 11q33 0 57.5 -41t24.5 -92q0 -22 -14 -34.5t-59 -26.5l-406 -113l-14 -4l-17 -2q-18 0 -36 34q-17 36 -17 66z" />
<glyph unicode="&#xd4;" horiz-adv-x="1425" d="M84 532q0 203 57 408.5t162 372.5q84 131 190.5 202.5t221.5 71.5t213 -69.5t200 -221.5q97 -143 151 -335.5t54 -397.5q0 -315 -154 -452.5t-513 -137.5q-306 0 -444 132.5t-138 426.5zM393 653q0 -184 72.5 -261t249.5 -77q165 0 241 85t76 272q0 253 -99.5 440.5 t-217.5 187.5q-128 0 -225 -191t-97 -456zM475 1718l6 12l15 20l198 230l9 12q18 23 59 23h65q41 0 64 -27l10 -12l192 -227l15 -21l6 -12q0 -7 -33.5 -13.5t-87.5 -6.5q-20 0 -34.5 6t-30.5 25l-134 157l-133 -157q-12 -18 -27.5 -24.5t-49.5 -6.5q-46 0 -77 6t-32 16z" />
<glyph unicode="&#xd5;" horiz-adv-x="1425" d="M84 532q0 203 57 408.5t162 372.5q84 131 190.5 202.5t221.5 71.5t213 -69.5t200 -221.5q97 -143 151 -335.5t54 -397.5q0 -315 -154 -452.5t-513 -137.5q-306 0 -444 132.5t-138 426.5zM393 653q0 -184 72.5 -261t249.5 -77q165 0 241 85t76 272q0 253 -99.5 440.5 t-217.5 187.5q-128 0 -225 -191t-97 -456zM420 1757q0 96 59 158.5t154 62.5q78 0 195 -42t157 -42q66 0 93 49t32 50h39q8 0 13 -6q4 -3 5 -17q0 -97 -59 -159t-154 -62q-78 0 -195 43t-155 43q-65 0 -93.5 -48.5t-33.5 -49.5h-37q-11 0 -16 5z" />
<glyph unicode="&#xd6;" horiz-adv-x="1425" d="M84 532q0 203 57 408.5t162 372.5q84 131 190.5 202.5t221.5 71.5t213 -69.5t200 -221.5q97 -143 151 -335.5t54 -397.5q0 -315 -154 -452.5t-513 -137.5q-306 0 -444 132.5t-138 426.5zM393 653q0 -184 72.5 -261t249.5 -77q165 0 241 85t76 272q0 253 -99.5 440.5 t-217.5 187.5q-128 0 -225 -191t-97 -456zM452 1866q0 51 34.5 86t84.5 35q49 0 84 -35.5t35 -85.5q0 -49 -35 -84t-84 -35t-84 34.5t-35 84.5zM895 1866q0 51 33.5 86t85.5 35q47 0 82.5 -35.5t35.5 -85.5q0 -49 -35 -84q-33 -35 -83 -35t-85 34q-34 36 -34 85z" />
<glyph unicode="&#xd7;" horiz-adv-x="1706" d="M287 152l458 458l-458 461l116 117l459 -459l461 459l117 -117l-459 -461l459 -458l-117 -119l-461 461l-459 -461z" />
<glyph unicode="&#xd8;" horiz-adv-x="1425" d="M66 -90l149 213q-72 89 -105.5 194t-33.5 252q0 201 56 393q29 100 67.5 186.5t93.5 172.5q86 134 194.5 207.5t221.5 73.5q106 0 193.5 -55t176.5 -179l140 201l108 -72l-168 -244q84 -156 126 -327.5t42 -356.5q0 -310 -152.5 -455t-482.5 -145q-111 0 -203 18t-170 54 l-149 -211zM387 662q0 -80 11 -132.5t34 -91.5l488 699q-51 93 -102 135.5t-111 42.5q-125 0 -222.5 -192.5t-97.5 -460.5zM532 352q21 -7 43 -13q13 -3 41 -10q20 -3 39.5 -5t40.5 -2q173 0 252.5 84.5t79.5 269.5q0 90 -12 168q-6 38 -14.5 74t-22.5 75z" />
<glyph unicode="&#xd9;" horiz-adv-x="1352" d="M98 815q0 208 16 387.5t42 280.5q14 54 26.5 66t48.5 12h232q18 0 25 -4.5t8 -20.5q0 -20 -19 -90q-71 -276 -71 -537q0 -289 69.5 -430t214.5 -141q135 0 196.5 119.5t61.5 384.5q0 325 -73 626l-13 66q0 12 9 20q11 7 30 7h191q35 0 51.5 -14.5t30.5 -60.5 q22 -96 37 -268q0 -53 7 -176t7 -194q0 -439 -141.5 -657t-424.5 -218q-266 0 -413.5 219.5t-147.5 622.5zM404 1874q0 52 23 92.5t57 40.5q10 0 23 -4q17 -3 30 -10l385 -158q28 -11 36 -20q9 -8 9 -21q0 -32 -17.5 -66t-37.5 -34l-16 1q-10 2 -15 5l-404 113 q-43 12 -58 24.5t-15 36.5z" />
<glyph unicode="&#xda;" horiz-adv-x="1352" d="M98 815q0 208 16 387.5t42 280.5q14 54 26.5 66t48.5 12h232q18 0 25 -4.5t8 -20.5q0 -20 -19 -90q-71 -276 -71 -537q0 -289 69.5 -430t214.5 -141q135 0 196.5 119.5t61.5 384.5q0 325 -73 626l-13 66q0 12 9 20q11 7 30 7h191q35 0 51.5 -14.5t30.5 -60.5 q22 -96 37 -268q0 -53 7 -176t7 -194q0 -439 -141.5 -657t-424.5 -218q-266 0 -413.5 219.5t-147.5 622.5zM398 1794q0 14 8.5 21.5t34.5 19.5l387 158l8 3q24 9 43 11q33 0 57.5 -41t24.5 -92q0 -22 -14 -34.5t-59 -26.5l-406 -113l-14 -4l-17 -2q-18 0 -36 34 q-17 36 -17 66z" />
<glyph unicode="&#xdb;" horiz-adv-x="1352" d="M98 815q0 208 16 387.5t42 280.5q14 54 26.5 66t48.5 12h232q18 0 25 -4.5t8 -20.5q0 -20 -19 -90q-71 -276 -71 -537q0 -289 69.5 -430t214.5 -141q135 0 196.5 119.5t61.5 384.5q0 325 -73 626l-13 66q0 12 9 20q11 7 30 7h191q35 0 51.5 -14.5t30.5 -60.5 q22 -96 37 -268q0 -53 7 -176t7 -194q0 -439 -141.5 -657t-424.5 -218q-266 0 -413.5 219.5t-147.5 622.5zM367 1718l6 12l15 20l198 230l9 12q18 23 59 23h65q41 0 64 -27l10 -12l192 -227l15 -21l6 -12q0 -7 -33.5 -13.5t-87.5 -6.5q-20 0 -34.5 6t-30.5 25l-134 157 l-133 -157q-12 -18 -27.5 -24.5t-49.5 -6.5q-46 0 -77 6t-32 16z" />
<glyph unicode="&#xdc;" horiz-adv-x="1352" d="M98 815q0 208 16 387.5t42 280.5q14 54 26.5 66t48.5 12h232q18 0 25 -4.5t8 -20.5q0 -20 -19 -90q-71 -276 -71 -537q0 -289 69.5 -430t214.5 -141q135 0 196.5 119.5t61.5 384.5q0 325 -73 626l-13 66q0 12 9 20q11 7 30 7h191q35 0 51.5 -14.5t30.5 -60.5 q22 -96 37 -268q0 -53 7 -176t7 -194q0 -439 -141.5 -657t-424.5 -218q-266 0 -413.5 219.5t-147.5 622.5zM344 1866q0 51 34.5 86t84.5 35q49 0 84 -35.5t35 -85.5q0 -49 -35 -84t-84 -35t-84 34.5t-35 84.5zM787 1866q0 51 33.5 86t85.5 35q47 0 82.5 -35.5t35.5 -85.5 q0 -49 -35 -84q-33 -35 -83 -35t-85 34q-34 36 -34 85z" />
<glyph unicode="&#xdd;" horiz-adv-x="672" d="M152 586q0 83 3 163t7 172t4 142q0 101 14 214q5 39 29 189q9 64 21.5 79.5t50.5 15.5h221q25 0 36 -5t11 -16q0 -18 -17 -89q-75 -336 -75 -642q0 -173 17 -343t53 -351q3 -14 8 -43.5t6 -42.5q0 -15 -13.5 -22t-40.5 -7h-219q-38 0 -52 7.5t-23 33.5q-17 50 -24 98.5 t-7 100.5q0 42 -3 112q-7 164 -7 234zM276 1839q0 54 33.5 87.5t87.5 33.5q53 0 87 -34t34 -87q0 -51 -35 -86t-86 -35q-53 0 -87 35t-34 86z" />
<glyph unicode="&#xde;" horiz-adv-x="1239" d="M80 399q0 100 39.5 184.5t70.5 84.5q14 0 25 -66t37 -119q51 -105 135.5 -156t206.5 -51q117 0 184.5 51t67.5 138q0 131 -286 231l-24 9q-227 80 -322 186t-95 270q0 189 130 306q65 59 150.5 88.5t192.5 29.5q169 0 315 -67t146 -127q0 -19 -13.5 -52.5t-42.5 -81.5 q-25 -46 -46.5 -70t-39.5 -24l-112 83q-112 83 -215 83q-78 0 -129.5 -45.5t-51.5 -116.5q0 -65 51.5 -108.5t221.5 -102.5q256 -84 364.5 -199t108.5 -296q0 -220 -152 -354q-124 -111 -318 -130l-10 -112l29 3l47 1q80 0 132.5 -39.5t52.5 -101.5q0 -69 -64 -109.5 t-174 -40.5q-108 0 -192.5 32t-84.5 71q0 15 11 24.5t26 9.5l76 -31q73 -32 141 -32q47 0 74 20q27 18 27 54q0 32 -30 49q-32 16 -91 16h-41q-15 0 -19 4.5t-5 8.5t-1 16l2 9l3 15l14 129h-6q-229 0 -372.5 119.5t-143.5 306.5z" />
<glyph unicode="&#xdf;" horiz-adv-x="1087" d="M100 815q0 300 15 430.5t51 192.5q44 75 129 115t205 40q185 0 298 -92.5t113 -243.5q0 -92 -51.5 -160t-138.5 -87q123 -24 199.5 -166t76.5 -348q0 -228 -89.5 -374.5t-225.5 -146.5q-87 0 -151 75t-64 149l3 18q3 6 9 8l36 -12q33 -12 60 -12q78 0 127.5 76.5 t49.5 197.5q0 169 -62 292.5t-133 123.5q-34 0 -72 -25q-15 -10 -30 -18q-4 -2 -11 -6q-1 0 -3.5 1.5t-6.5 6.5l-8 23l-23 125l-4 18l-2 10q0 14 66 29q35 7 61 13.5t41 12.5q61 21 92 59.5t31 92.5q0 63 -49 103t-129 40q-93 0 -129.5 -84.5t-36.5 -343.5q0 -366 66 -780 q16 -106 16 -123q0 -29 -9 -38q-9 -7 -40 -7h-197q-61 0 -61 91v16q0 8 -2 22q0 26 -6 121t-6 166q0 78 -2.5 220.5t-2.5 178.5z" />
<glyph unicode="&#xe0;" horiz-adv-x="1014" d="M70 326q0 63 17 117.5t54 105.5q72 99 207 162q33 16 76 29.5t99 26.5q98 23 98 71q0 63 -55 112t-132 49q-55 0 -97 -22t-69 -66q-11 -18 -19 -51q-6 -31 -24 -31q-51 0 -90 45t-39 111q0 104 92.5 168t243.5 64q80 0 150 -20t129 -58q95 -64 136.5 -160.5t41.5 -288.5 q0 -187 6 -336t20 -279l3 -24q0 -40 -17.5 -54.5t-71.5 -14.5l-62 3l-75 3q-49 0 -122 -7q-41 -4 -64.5 -6t-44.5 -2q-187 0 -289 91.5t-102 261.5zM219 1493q0 52 23 92.5t57 40.5q10 0 23 -4q17 -3 30 -10l385 -158q28 -11 36 -20q9 -8 9 -21q0 -32 -17.5 -66t-37.5 -34 l-16 1q-10 2 -15 5l-404 113q-43 12 -58 24.5t-15 36.5zM334 371q0 -71 52 -118.5t134 -47.5q62 0 88.5 16.5t26.5 54.5v230q0 36 -19.5 55t-58.5 19q-85 0 -154 -60.5t-69 -148.5z" />
<glyph unicode="&#xe1;" horiz-adv-x="1014" d="M70 326q0 63 17 117.5t54 105.5q72 99 207 162q33 16 76 29.5t99 26.5q98 23 98 71q0 63 -55 112t-132 49q-55 0 -97 -22t-69 -66q-11 -18 -19 -51q-6 -31 -24 -31q-51 0 -90 45t-39 111q0 104 92.5 168t243.5 64q80 0 150 -20t129 -58q95 -64 136.5 -160.5t41.5 -288.5 q0 -187 6 -336t20 -279l3 -24q0 -40 -17.5 -54.5t-71.5 -14.5l-62 3l-75 3q-49 0 -122 -7q-41 -4 -64.5 -6t-44.5 -2q-187 0 -289 91.5t-102 261.5zM213 1413q0 14 8.5 21.5t34.5 19.5l387 158l8 3q24 9 43 11q33 0 57.5 -41t24.5 -92q0 -22 -14 -34.5t-59 -26.5l-406 -113 l-14 -4l-17 -2q-18 0 -36 34q-17 36 -17 66zM334 371q0 -71 52 -118.5t134 -47.5q62 0 88.5 16.5t26.5 54.5v230q0 36 -19.5 55t-58.5 19q-85 0 -154 -60.5t-69 -148.5z" />
<glyph unicode="&#xe2;" horiz-adv-x="1014" d="M70 326q0 63 17 117.5t54 105.5q72 99 207 162q33 16 76 29.5t99 26.5q98 23 98 71q0 63 -55 112t-132 49q-55 0 -97 -22t-69 -66q-11 -18 -19 -51q-6 -31 -24 -31q-51 0 -90 45t-39 111q0 104 92.5 168t243.5 64q80 0 150 -20t129 -58q95 -64 136.5 -160.5t41.5 -288.5 q0 -187 6 -336t20 -279l3 -24q0 -40 -17.5 -54.5t-71.5 -14.5l-62 3l-75 3q-49 0 -122 -7q-41 -4 -64.5 -6t-44.5 -2q-187 0 -289 91.5t-102 261.5zM182 1337l6 12l15 20l198 230l9 12q18 23 59 23h65q41 0 64 -27l10 -12l192 -227l15 -21l6 -12q0 -7 -33.5 -13.5 t-87.5 -6.5q-20 0 -34.5 6t-30.5 25l-134 157l-133 -157q-12 -18 -27.5 -24.5t-49.5 -6.5q-46 0 -77 6t-32 16zM334 371q0 -71 52 -118.5t134 -47.5q62 0 88.5 16.5t26.5 54.5v230q0 36 -19.5 55t-58.5 19q-85 0 -154 -60.5t-69 -148.5z" />
<glyph unicode="&#xe3;" horiz-adv-x="1014" d="M70 326q0 63 17 117.5t54 105.5q72 99 207 162q33 16 76 29.5t99 26.5q98 23 98 71q0 63 -55 112t-132 49q-55 0 -97 -22t-69 -66q-11 -18 -19 -51q-6 -31 -24 -31q-51 0 -90 45t-39 111q0 104 92.5 168t243.5 64q80 0 150 -20t129 -58q95 -64 136.5 -160.5t41.5 -288.5 q0 -187 6 -336t20 -279l3 -24q0 -40 -17.5 -54.5t-71.5 -14.5l-62 3l-75 3q-49 0 -122 -7q-41 -4 -64.5 -6t-44.5 -2q-187 0 -289 91.5t-102 261.5zM127 1376q0 96 59 158.5t154 62.5q78 0 195 -42t157 -42q66 0 93 49t32 50h39q8 0 13 -6q4 -3 5 -17q0 -97 -59 -159 t-154 -62q-78 0 -195 43t-155 43q-65 0 -93.5 -48.5t-33.5 -49.5h-37q-11 0 -16 5zM334 371q0 -71 52 -118.5t134 -47.5q62 0 88.5 16.5t26.5 54.5v230q0 36 -19.5 55t-58.5 19q-85 0 -154 -60.5t-69 -148.5z" />
<glyph unicode="&#xe4;" horiz-adv-x="1014" d="M70 326q0 63 17 117.5t54 105.5q72 99 207 162q33 16 76 29.5t99 26.5q98 23 98 71q0 63 -55 112t-132 49q-55 0 -97 -22t-69 -66q-11 -18 -19 -51q-6 -31 -24 -31q-51 0 -90 45t-39 111q0 104 92.5 168t243.5 64q80 0 150 -20t129 -58q95 -64 136.5 -160.5t41.5 -288.5 q0 -187 6 -336t20 -279l3 -24q0 -40 -17.5 -54.5t-71.5 -14.5l-62 3l-75 3q-49 0 -122 -7q-41 -4 -64.5 -6t-44.5 -2q-187 0 -289 91.5t-102 261.5zM159 1485q0 51 34.5 86t84.5 35q49 0 84 -35.5t35 -85.5q0 -49 -35 -84t-84 -35t-84 34.5t-35 84.5zM334 371 q0 -71 52 -118.5t134 -47.5q62 0 88.5 16.5t26.5 54.5v230q0 36 -19.5 55t-58.5 19q-85 0 -154 -60.5t-69 -148.5zM602 1485q0 51 33.5 86t85.5 35q47 0 82.5 -35.5t35.5 -85.5q0 -49 -35 -84q-33 -35 -83 -35t-85 34q-34 36 -34 85z" />
<glyph unicode="&#xe5;" horiz-adv-x="1014" d="M70 326q0 63 17 117.5t54 105.5q72 99 207 162q33 16 76 29.5t99 26.5q98 23 98 71q0 63 -55 112t-132 49q-55 0 -97 -22t-69 -66q-11 -18 -19 -51q-6 -31 -24 -31q-51 0 -90 45t-39 111q0 104 92.5 168t243.5 64q80 0 150 -20t129 -58q95 -64 136.5 -160.5t41.5 -288.5 q0 -187 6 -336t20 -279l3 -24q0 -40 -17.5 -54.5t-71.5 -14.5l-62 3l-75 3q-49 0 -122 -7q-41 -4 -64.5 -6t-44.5 -2q-187 0 -289 91.5t-102 261.5zM317 1475q0 84 60.5 144t146.5 60q83 0 144 -59.5t61 -144.5q0 -84 -60.5 -144.5t-144.5 -60.5q-87 0 -147 59.5t-60 145.5z M334 371q0 -71 52 -118.5t134 -47.5q62 0 88.5 16.5t26.5 54.5v230q0 36 -19.5 55t-58.5 19q-85 0 -154 -60.5t-69 -148.5zM414 1475q0 -45 30 -78q31 -31 76 -31t77 31.5t32 77.5q0 44 -31.5 75t-77.5 31q-44 0 -75 -31t-31 -75z" />
<glyph unicode="&#xe6;" horiz-adv-x="1577" d="M55 330q0 124 71.5 222t207.5 159q68 29 171 54t103 73q0 64 -55 111.5t-133 47.5q-54 0 -96.5 -21.5t-67.5 -64.5q-7 -11 -10.5 -20t-9.5 -31q-6 -31 -23 -31q-51 0 -91 45t-40 109q0 102 93 169t239 67q108 0 197 -36.5t169 -113.5q75 74 161 112t179 38 q162 0 265.5 -88t103.5 -226q0 -115 -61.5 -190.5t-200.5 -132.5l-119 -43q-197 -66 -197 -150q0 -59 67 -100t167 -41q41 0 77.5 6t71.5 20q67 25 103 70q44 56 60 119q3 15 7 16q18 0 29.5 -37.5t11.5 -99.5q0 -162 -112 -262t-297 -100q-102 0 -180 31t-134 95 q-51 -69 -130 -102q-40 -15 -91 -23t-117 -8q-181 0 -285 95.5t-104 261.5zM319 375q0 -70 54 -118t135 -48q60 0 86.5 17t26.5 57v229q0 36 -19 55t-57 19q-87 0 -156.5 -61.5t-69.5 -149.5zM872 741q0 -20 9 -34q9 -11 24 -13l16 2l24 7l237 81q40 14 60 37q10 12 15 26 t5 32q0 55 -42.5 91t-111.5 36q-94 0 -165 -82t-71 -183z" />
<glyph unicode="&#xe7;" horiz-adv-x="940" d="M61 545q0 299 147 485.5t374 186.5q121 0 198.5 -60.5t77.5 -155.5q0 -55 -37 -100t-76 -45q-17 0 -33.5 33.5t-29.5 48.5q-22 26 -57 43q-18 8 -33.5 12t-34.5 4q-101 0 -173.5 -113.5t-72.5 -285.5q0 -156 71 -245t196 -89q61 0 108.5 18.5t83.5 57.5q24 24 39 57 t20 33q18 0 28.5 -31.5t10.5 -85.5q0 -160 -97 -251q-75 -69 -196 -84l-10 -113l29 3l47 1q80 0 132.5 -39.5t52.5 -101.5q0 -69 -64 -109.5t-174 -40.5q-108 0 -192.5 32t-84.5 71q0 15 11 24.5t26 9.5l76 -31q73 -32 141 -32q47 0 74 20q27 18 27 54q0 32 -30 49 q-32 16 -91 16h-41q-15 0 -19 4.5t-5 8.5t-1 16l2 9l3 15l14 129q-194 0 -315.5 156t-121.5 416z" />
<glyph unicode="&#xe8;" horiz-adv-x="1012" d="M70 575q0 295 133.5 468.5t359.5 173.5q162 0 265.5 -88t103.5 -226q0 -114 -62 -192t-200 -133l-117 -43q-199 -69 -199 -152q0 -58 63.5 -97.5t164.5 -39.5q67 0 123 18.5t100 54.5q72 62 93 140q3 13 7 14q20 0 32 -35q5 -16 8 -40t3 -58q0 -165 -112.5 -266 t-298.5 -101q-218 0 -342.5 159t-124.5 443zM287 1493q0 52 23 92.5t57 40.5q10 0 23 -4q17 -3 30 -10l385 -158q28 -11 36 -20q9 -8 9 -21q0 -32 -17.5 -66t-37.5 -34l-16 1q-10 2 -15 5l-404 113q-43 12 -58 24.5t-15 36.5zM313 739q0 -20 10 -33.5t23 -13.5q12 0 18 2 l22 7l237 79q38 13 59 39q10 12 15 27t5 35q0 52 -43 86t-110 34q-95 0 -165.5 -81t-70.5 -181z" />
<glyph unicode="&#xe9;" horiz-adv-x="1012" d="M70 575q0 295 133.5 468.5t359.5 173.5q162 0 265.5 -88t103.5 -226q0 -114 -62 -192t-200 -133l-117 -43q-199 -69 -199 -152q0 -58 63.5 -97.5t164.5 -39.5q67 0 123 18.5t100 54.5q72 62 93 140q3 13 7 14q20 0 32 -35q5 -16 8 -40t3 -58q0 -165 -112.5 -266 t-298.5 -101q-218 0 -342.5 159t-124.5 443zM281 1413q0 14 8.5 21.5t34.5 19.5l387 158l8 3q24 9 43 11q33 0 57.5 -41t24.5 -92q0 -22 -14 -34.5t-59 -26.5l-406 -113l-14 -4l-17 -2q-18 0 -36 34q-17 36 -17 66zM313 739q0 -20 10 -33.5t23 -13.5q12 0 18 2l22 7l237 79 q38 13 59 39q10 12 15 27t5 35q0 52 -43 86t-110 34q-95 0 -165.5 -81t-70.5 -181z" />
<glyph unicode="&#xea;" horiz-adv-x="1012" d="M70 575q0 295 133.5 468.5t359.5 173.5q162 0 265.5 -88t103.5 -226q0 -114 -62 -192t-200 -133l-117 -43q-199 -69 -199 -152q0 -58 63.5 -97.5t164.5 -39.5q67 0 123 18.5t100 54.5q72 62 93 140q3 13 7 14q20 0 32 -35q5 -16 8 -40t3 -58q0 -165 -112.5 -266 t-298.5 -101q-218 0 -342.5 159t-124.5 443zM250 1337l6 12l15 20l198 230l9 12q18 23 59 23h65q41 0 64 -27l10 -12l192 -227l15 -21l6 -12q0 -7 -33.5 -13.5t-87.5 -6.5q-20 0 -34.5 6t-30.5 25l-134 157l-133 -157q-12 -18 -27.5 -24.5t-49.5 -6.5q-46 0 -77 6t-32 16z M313 739q0 -20 10 -33.5t23 -13.5q12 0 18 2l22 7l237 79q38 13 59 39q10 12 15 27t5 35q0 52 -43 86t-110 34q-95 0 -165.5 -81t-70.5 -181z" />
<glyph unicode="&#xeb;" horiz-adv-x="1012" d="M70 575q0 295 133.5 468.5t359.5 173.5q162 0 265.5 -88t103.5 -226q0 -114 -62 -192t-200 -133l-117 -43q-199 -69 -199 -152q0 -58 63.5 -97.5t164.5 -39.5q67 0 123 18.5t100 54.5q72 62 93 140q3 13 7 14q20 0 32 -35q5 -16 8 -40t3 -58q0 -165 -112.5 -266 t-298.5 -101q-218 0 -342.5 159t-124.5 443zM227 1485q0 51 34.5 86t84.5 35q49 0 84 -35.5t35 -85.5q0 -49 -35 -84t-84 -35t-84 34.5t-35 84.5zM313 739q0 -20 10 -33.5t23 -13.5q12 0 18 2l22 7l237 79q38 13 59 39q10 12 15 27t5 35q0 52 -43 86t-110 34 q-95 0 -165.5 -81t-70.5 -181zM670 1485q0 51 33.5 86t85.5 35q47 0 82.5 -35.5t35.5 -85.5q0 -49 -35 -84q-33 -35 -83 -35t-85 34q-34 36 -34 85z" />
<glyph unicode="&#xec;" horiz-adv-x="526" d="M2 1493q0 52 23 92.5t57 40.5q10 0 23 -4q17 -3 30 -10l385 -158q28 -11 36 -20q9 -8 9 -21q0 -32 -17.5 -66t-37.5 -34l-16 1q-10 2 -15 5l-404 113q-43 12 -58 24.5t-15 36.5zM115 283v235q0 59 3 169t3 160q0 73 5 143q2 24 11 122l1 10q0 64 122 64h29 q71 0 86.5 -6.5t15.5 -32.5q0 -6 -1 -21.5t-4 -40.5q-17 -190 -17 -348q0 -298 52 -616l11 -84q0 -23 -20.5 -30t-118.5 -7h-109q-41 0 -56 49q-13 52 -13 234z" />
<glyph unicode="&#xed;" horiz-adv-x="526" d="M-4 1413q0 14 8.5 21.5t34.5 19.5l387 158l8 3q24 9 43 11q33 0 57.5 -41t24.5 -92q0 -22 -14 -34.5t-59 -26.5l-406 -113l-14 -4l-17 -2q-18 0 -36 34q-17 36 -17 66zM115 283v235q0 59 3 169t3 160q0 73 5 143q2 24 11 122l1 10q0 64 122 64h29q71 0 86.5 -6.5 t15.5 -32.5q0 -6 -1 -21.5t-4 -40.5q-17 -190 -17 -348q0 -298 52 -616l11 -84q0 -23 -20.5 -30t-118.5 -7h-109q-41 0 -56 49q-13 52 -13 234z" />
<glyph unicode="&#xee;" horiz-adv-x="526" d="M-35 1337l6 12l15 20l198 230l9 12q18 23 59 23h65q41 0 64 -27l10 -12l192 -227l15 -21l6 -12q0 -7 -33.5 -13.5t-87.5 -6.5q-20 0 -34.5 6t-30.5 25l-134 157l-133 -157q-12 -18 -27.5 -24.5t-49.5 -6.5q-46 0 -77 6t-32 16zM115 283v235q0 59 3 169t3 160q0 73 5 143 q2 24 11 122l1 10q0 64 122 64h29q71 0 86.5 -6.5t15.5 -32.5q0 -6 -1 -21.5t-4 -40.5q-17 -190 -17 -348q0 -298 52 -616l11 -84q0 -23 -20.5 -30t-118.5 -7h-109q-41 0 -56 49q-13 52 -13 234z" />
<glyph unicode="&#xef;" horiz-adv-x="526" d="M-58 1485q0 51 34.5 86t84.5 35q49 0 84 -35.5t35 -85.5q0 -49 -35 -84t-84 -35t-84 34.5t-35 84.5zM115 283v235q0 59 3 169t3 160q0 73 5 143q2 24 11 122l1 10q0 64 122 64h29q71 0 86.5 -6.5t15.5 -32.5q0 -6 -1 -21.5t-4 -40.5q-17 -190 -17 -348q0 -298 52 -616 l11 -84q0 -23 -20.5 -30t-118.5 -7h-109q-41 0 -56 49q-13 52 -13 234zM385 1485q0 51 33.5 86t85.5 35q47 0 82.5 -35.5t35.5 -85.5q0 -49 -35 -84q-33 -35 -83 -35t-85 34q-34 36 -34 85z" />
<glyph unicode="&#xf0;" horiz-adv-x="975" d="M37 207q0 50 19.5 88.5t67.5 80.5l50 41q64 49 64 75q0 14 -70 115.5t-70 217.5q0 165 108 277t263 112l57 -3l60 -3q45 0 78 52l20 30q29 40 60 70.5t42 30.5q12 0 29 -11q14 -8 53 -43q53 -47 70 -72q9 -13 12.5 -23t3.5 -23q0 -15 -57 -27l-20 -4q-49 -9 -73 -24.5 t-24 -37.5q0 -5 51 -94q26 -45 39 -92.5t13 -103.5q0 -134 -62 -228.5t-176 -128.5l-104 -30q-254 -71 -254 -162q0 -21 18.5 -33t50.5 -12q15 0 51 10.5t105 36.5q130 47 219 47q113 0 165 -29q54 -27 54 -88q0 -23 -21 -79t-55 -117q-9 -22 -24 -33t-29 -13q-8 6 -13 10 q-15 12 -38 34q-47 45 -104 45q-24 0 -64.5 -10.5t-109.5 -36.5q-130 -46 -211 -46q-115 0 -179.5 62t-64.5 172zM219 1593q0 19 9 34t21 15q21 0 38 -36q15 -36 24 -48q26 -34 75.5 -52.5t120.5 -18.5q67 0 116 18t81 56q10 13 24 47t35 34q9 0 20 -15q9 -15 9 -34 q0 -107 -85 -184.5t-210 -77.5q-118 0 -198 78.5t-80 183.5zM319 860q0 -85 45.5 -134.5t124.5 -49.5q83 0 133 50t50 132q0 89 -45 139t-127 50q-79 0 -130 -52.5t-51 -134.5z" />
<glyph unicode="&#xf1;" horiz-adv-x="1090" d="M123 494q0 75 3 202t3 180q0 77 5 139.5t14.5 135t34.5 88.5q13 8 43.5 12t86.5 4q94 0 111 -8q20 -6 20 -28q0 -12 -9 -35.5t-9 -34.5q0 -21 8.5 -30t26.5 -9t89 37q34 17 68.5 27t65.5 10q150 0 214.5 -136t64.5 -491q0 -56 -2 -103q-6 -142 -6 -149q0 -48 -6 -94.5 t-17 -97.5l-4 -23q-15 -90 -103 -90l-74 1l-46 1h-43q-22 0 -29.5 6.5t-7.5 24.5l9 38q83 297 83 636q0 139 -35 196.5t-117 57.5q-91 0 -141.5 -98.5t-50.5 -280.5q0 -276 51 -516l6 -33q0 -20 -8 -26.5t-39 -6.5h-12h-103h-32q-60 0 -75 9t-24 42q-4 15 -7.5 48t-3.5 74 q0 79 -1 161.5t-2 159.5zM191 1376q0 96 59 158.5t154 62.5q78 0 195 -42t157 -42q66 0 93 49t32 50h39q8 0 13 -6q4 -3 5 -17q0 -97 -59 -159t-154 -62q-78 0 -195 43t-155 43q-65 0 -93.5 -48.5t-33.5 -49.5h-37q-11 0 -16 5z" />
<glyph unicode="&#xf2;" horiz-adv-x="1085" d="M72 590q0 283 129 453.5t344 170.5q202 0 327 -163.5t125 -434.5q0 -289 -130 -466t-341 -177q-202 0 -328 170t-126 447zM281 1493q0 52 23 92.5t57 40.5q10 0 23 -4q17 -3 30 -10l385 -158q28 -11 36 -20q9 -8 9 -21q0 -32 -17.5 -66t-37.5 -34l-16 1q-10 2 -15 5 l-404 113q-43 12 -58 24.5t-15 36.5zM313 637q0 -161 60 -256.5t164 -95.5q97 0 159 102t62 264q0 156 -60 249t-157 93q-103 0 -165.5 -97t-62.5 -259z" />
<glyph unicode="&#xf3;" horiz-adv-x="1085" d="M72 590q0 283 129 453.5t344 170.5q202 0 327 -163.5t125 -434.5q0 -289 -130 -466t-341 -177q-202 0 -328 170t-126 447zM275 1413q0 14 8.5 21.5t34.5 19.5l387 158l8 3q24 9 43 11q33 0 57.5 -41t24.5 -92q0 -22 -14 -34.5t-59 -26.5l-406 -113l-14 -4l-17 -2 q-18 0 -36 34q-17 36 -17 66zM313 637q0 -161 60 -256.5t164 -95.5q97 0 159 102t62 264q0 156 -60 249t-157 93q-103 0 -165.5 -97t-62.5 -259z" />
<glyph unicode="&#xf4;" horiz-adv-x="1085" d="M72 590q0 283 129 453.5t344 170.5q202 0 327 -163.5t125 -434.5q0 -289 -130 -466t-341 -177q-202 0 -328 170t-126 447zM244 1337l6 12l15 20l198 230l9 12q18 23 59 23h65q41 0 64 -27l10 -12l192 -227l15 -21l6 -12q0 -7 -33.5 -13.5t-87.5 -6.5q-20 0 -34.5 6 t-30.5 25l-134 157l-133 -157q-12 -18 -27.5 -24.5t-49.5 -6.5q-46 0 -77 6t-32 16zM313 637q0 -161 60 -256.5t164 -95.5q97 0 159 102t62 264q0 156 -60 249t-157 93q-103 0 -165.5 -97t-62.5 -259z" />
<glyph unicode="&#xf5;" horiz-adv-x="1085" d="M72 590q0 283 129 453.5t344 170.5q202 0 327 -163.5t125 -434.5q0 -289 -130 -466t-341 -177q-202 0 -328 170t-126 447zM189 1376q0 96 59 158.5t154 62.5q78 0 195 -42t157 -42q66 0 93 49t32 50h39q8 0 13 -6q4 -3 5 -17q0 -97 -59 -159t-154 -62q-78 0 -195 43 t-155 43q-65 0 -93.5 -48.5t-33.5 -49.5h-37q-11 0 -16 5zM313 637q0 -161 60 -256.5t164 -95.5q97 0 159 102t62 264q0 156 -60 249t-157 93q-103 0 -165.5 -97t-62.5 -259z" />
<glyph unicode="&#xf6;" horiz-adv-x="1085" d="M72 590q0 283 129 453.5t344 170.5q202 0 327 -163.5t125 -434.5q0 -289 -130 -466t-341 -177q-202 0 -328 170t-126 447zM221 1485q0 51 34.5 86t84.5 35q49 0 84 -35.5t35 -85.5q0 -49 -35 -84t-84 -35t-84 34.5t-35 84.5zM313 637q0 -161 60 -256.5t164 -95.5 q97 0 159 102t62 264q0 156 -60 249t-157 93q-103 0 -165.5 -97t-62.5 -259zM664 1485q0 51 33.5 86t85.5 35q47 0 82.5 -35.5t35.5 -85.5q0 -49 -35 -84q-33 -35 -83 -35t-85 34q-34 36 -34 85z" />
<glyph unicode="&#xf7;" horiz-adv-x="1706" d="M254 528v166h1198v-166h-1198zM717 229q0 57 40.5 97.5t96.5 40.5q57 0 97 -40.5t40 -97.5q0 -56 -39.5 -95.5t-97.5 -39.5q-56 0 -96.5 39t-40.5 96zM717 989q0 57 40.5 98t96.5 41q57 0 97 -41.5t40 -97.5t-39.5 -95.5t-97.5 -39.5q-56 0 -96.5 39t-40.5 96z" />
<glyph unicode="&#xf8;" horiz-adv-x="1085" d="M10 -59l162 237q-49 78 -75.5 186.5t-26.5 229.5q0 142 31 252.5t97 198.5q130 172 337 172q79 0 145.5 -24t126.5 -73l131 193l90 -60l-145 -217q54 -76 84 -181.5t30 -229.5q0 -294 -131 -474t-340 -180q-84 0 -159 30t-125 87l-144 -213zM309 621q0 -48 9.5 -96.5 t25.5 -88.5l332 488q-32 34 -67.5 51.5t-73.5 17.5q-102 0 -164 -101t-62 -271zM408 336q27 -27 54 -39t64 -12q105 0 168.5 98.5t63.5 265.5q0 41 -5.5 78.5t-8 48t-11.5 39.5z" />
<glyph unicode="&#xf9;" horiz-adv-x="1092" d="M121 618q0 55 3.5 143.5t3.5 108.5q0 53 5 95.5t14 86.5l5 27q17 111 71 111h195q23 0 32 -6q7 -7 7 -27l-10 -44q-80 -311 -80 -648q0 -140 34 -201t111 -61q97 0 148 99t51 292q0 140 -13 273t-40 257l-7 33q0 18 8 26q11 7 37 7h183q49 0 66 -51q8 -27 12 -88t4 -168 v-150q0 -112 -2 -207.5t-3 -176.5q0 -61 -3.5 -116t-10.5 -104l-1 -5q-15 -142 -173 -142h-13h-11q-42 0 -62 5q-27 4 -35 15l-6 16q-9 29 -35 29l-71 -37q-68 -37 -138 -37q-150 0 -213 139.5t-63 505.5zM285 1493q0 52 23 92.5t57 40.5q10 0 23 -4q17 -3 30 -10l385 -158 q28 -11 36 -20q9 -8 9 -21q0 -32 -17.5 -66t-37.5 -34l-16 1q-10 2 -15 5l-404 113q-43 12 -58 24.5t-15 36.5z" />
<glyph unicode="&#xfa;" horiz-adv-x="1092" d="M121 618q0 55 3.5 143.5t3.5 108.5q0 53 5 95.5t14 86.5l5 27q17 111 71 111h195q23 0 32 -6q7 -7 7 -27l-10 -44q-80 -311 -80 -648q0 -140 34 -201t111 -61q97 0 148 99t51 292q0 140 -13 273t-40 257l-7 33q0 18 8 26q11 7 37 7h183q49 0 66 -51q8 -27 12 -88t4 -168 v-150q0 -112 -2 -207.5t-3 -176.5q0 -61 -3.5 -116t-10.5 -104l-1 -5q-15 -142 -173 -142h-13h-11q-42 0 -62 5q-27 4 -35 15l-6 16q-9 29 -35 29l-71 -37q-68 -37 -138 -37q-150 0 -213 139.5t-63 505.5zM279 1413q0 14 8.5 21.5t34.5 19.5l387 158l8 3q24 9 43 11 q33 0 57.5 -41t24.5 -92q0 -22 -14 -34.5t-59 -26.5l-406 -113l-14 -4l-17 -2q-18 0 -36 34q-17 36 -17 66z" />
<glyph unicode="&#xfb;" horiz-adv-x="1092" d="M121 618q0 55 3.5 143.5t3.5 108.5q0 53 5 95.5t14 86.5l5 27q17 111 71 111h195q23 0 32 -6q7 -7 7 -27l-10 -44q-80 -311 -80 -648q0 -140 34 -201t111 -61q97 0 148 99t51 292q0 140 -13 273t-40 257l-7 33q0 18 8 26q11 7 37 7h183q49 0 66 -51q8 -27 12 -88t4 -168 v-150q0 -112 -2 -207.5t-3 -176.5q0 -61 -3.5 -116t-10.5 -104l-1 -5q-15 -142 -173 -142h-13h-11q-42 0 -62 5q-27 4 -35 15l-6 16q-9 29 -35 29l-71 -37q-68 -37 -138 -37q-150 0 -213 139.5t-63 505.5zM248 1337l6 12l15 20l198 230l9 12q18 23 59 23h65q41 0 64 -27 l10 -12l192 -227l15 -21l6 -12q0 -7 -33.5 -13.5t-87.5 -6.5q-20 0 -34.5 6t-30.5 25l-134 157l-133 -157q-12 -18 -27.5 -24.5t-49.5 -6.5q-46 0 -77 6t-32 16z" />
<glyph unicode="&#xfc;" horiz-adv-x="1092" d="M121 618q0 55 3.5 143.5t3.5 108.5q0 53 5 95.5t14 86.5l5 27q17 111 71 111h195q23 0 32 -6q7 -7 7 -27l-10 -44q-80 -311 -80 -648q0 -140 34 -201t111 -61q97 0 148 99t51 292q0 140 -13 273t-40 257l-7 33q0 18 8 26q11 7 37 7h183q49 0 66 -51q8 -27 12 -88t4 -168 v-150q0 -112 -2 -207.5t-3 -176.5q0 -61 -3.5 -116t-10.5 -104l-1 -5q-15 -142 -173 -142h-13h-11q-42 0 -62 5q-27 4 -35 15l-6 16q-9 29 -35 29l-71 -37q-68 -37 -138 -37q-150 0 -213 139.5t-63 505.5zM225 1485q0 51 34.5 86t84.5 35q49 0 84 -35.5t35 -85.5 q0 -49 -35 -84t-84 -35t-84 34.5t-35 84.5zM668 1485q0 51 33.5 86t85.5 35q47 0 82.5 -35.5t35.5 -85.5q0 -49 -35 -84q-33 -35 -83 -35t-85 34q-34 36 -34 85z" />
<glyph unicode="&#xfd;" horiz-adv-x="526" d="M115 283v235q0 59 3 169t3 160q0 73 5 143q2 24 11 122l1 10q0 64 122 64h29q71 0 86.5 -6.5t15.5 -32.5q0 -6 -1 -21.5t-4 -40.5q-17 -190 -17 -348q0 -298 52 -616l11 -84q0 -23 -20.5 -30t-118.5 -7h-109q-41 0 -56 49q-13 52 -13 234z" />
<glyph unicode="&#xfe;" horiz-adv-x="936" d="M59 311q0 71 24 133t42 62l5 -10q7 -16 13 -32q15 -41 39 -79q44 -66 110 -105.5t138 -39.5q79 0 124.5 36t45.5 95q0 66 -154 139l-26 12q-199 95 -261.5 171t-62.5 192q0 153 105.5 242.5t287.5 89.5q129 0 233.5 -57t104.5 -113q0 -41 -53.5 -115t-87.5 -74 q-9 0 -75 76t-152 76q-55 0 -90 -30.5t-35 -74.5q0 -81 170 -154l74 -32q158 -72 228.5 -162t70.5 -217q0 -167 -120 -268q-85 -71 -216 -91l-11 -116l29 3l47 1q80 0 132.5 -39.5t52.5 -101.5q0 -69 -64 -109.5t-174 -40.5q-108 0 -192.5 32t-84.5 71q0 15 11 24.5t26 9.5 l76 -31q73 -32 141 -32q47 0 74 20q27 18 27 54q0 32 -30 49q-32 16 -91 16h-41q-15 0 -19 4.5t-5 8.5t-1 16l2 9l3 15l14 130l-29 -1q-172 0 -273.5 92t-101.5 246z" />
<glyph unicode="&#xff;" horiz-adv-x="975" d="M59 1104q0 51 9.5 68.5t46.5 17.5h207q22 0 31 -3.5t9 -12.5l-6 -58q-6 -45 -6 -80q0 -148 78 -290t135 -142q50 0 87.5 113.5t37.5 277.5q0 58 -7 113l-7 59q0 11 6 17t20 6h177q33 0 42 -19t9 -104q0 -222 -69 -426q-34 -101 -84 -193.5t-116 -175.5 q-111 -141 -252.5 -220t-277.5 -79q-36 0 -46.5 8t-10.5 46v204q0 16 5 21.5t17 5.5l19 -2l22 -2q104 0 183 39t79 84q0 21 -65 77t-109 115q-82 115 -123 249t-41 286zM165 1485q0 51 34.5 86t84.5 35q49 0 84 -35.5t35 -85.5q0 -49 -35 -84t-84 -35t-84 34.5t-35 84.5z M608 1485q0 51 33.5 86t85.5 35q47 0 82.5 -35.5t35.5 -85.5q0 -49 -35 -84q-33 -35 -83 -35t-85 34q-34 36 -34 85z" />
<glyph unicode="&#x152;" horiz-adv-x="1954" d="M96 539q0 201 55.5 406.5t153.5 369.5q80 134 181 206t210 72q85 0 170 -46.5t174 -145.5q20 99 43 129.5t66 30.5h690l16 -1l11 -1q24 0 32 -5q8 -3 9 -16l-3 -13l-1 -3l-105 -240q-7 -17 -14 -24q-7 -5 -19 -7q-4 2 -7 3q-9 4 -20 11q-122 74 -231 74 q-119 0 -189.5 -72.5t-70.5 -199.5q0 -43 17 -70.5t41 -27.5q30 0 134.5 45t180.5 45q71 0 93 -8t22 -27l-1 -12l-1 -6l-87 -245l-4 -11q-7 -22 -20 -23l-52 16q-51 17 -97 17q-99 0 -162.5 -69.5t-63.5 -180.5q0 -126 63.5 -197t176.5 -71q105 0 245 98q38 27 50 29 q10 0 15.5 -4.5t15.5 -25.5l120 -273l3 -7q6 -12 6 -18q0 -20 -20 -31q-22 -10 -58 -10h-672l-20 1l-25 1q-49 0 -63 20q-8 12 -14.5 44t-6.5 83q-34 -96 -128 -136q-48 -20 -119 -30t-173 -10q-285 0 -416 135.5t-131 430.5zM391 659q0 -185 69 -263.5t236 -78.5 q157 0 229 84.5t72 272.5q0 256 -93.5 444.5t-207.5 188.5q-120 0 -212.5 -190.5t-92.5 -457.5z" />
<glyph unicode="&#x153;" horiz-adv-x="1690" d="M72 592q0 275 129.5 451t326.5 176q97 0 181 -39.5t178 -130.5q87 85 176.5 127.5t187.5 42.5q153 0 256 -90t103 -226q0 -114 -63.5 -192.5t-198.5 -132.5q-43 -18 -123 -45q-195 -66 -195 -148q0 -59 65 -100t167 -41q86 0 154 28.5t112 83.5q26 34 41 77q6 21 13 36 l3 6q17 0 29 -36.5t12 -100.5q0 -162 -113.5 -263.5t-300.5 -101.5q-113 0 -198.5 43t-147.5 129q-54 -84 -138 -128t-191 -44q-209 0 -337 169t-128 450zM315 637q0 -161 60 -256.5t162 -95.5q97 0 159 102t62 264q0 156 -60 249t-157 93q-102 0 -164 -97t-62 -259z M989 741q0 -17 9 -29q10 -10 28 -10l21 3l29 8l222 73q39 13 58.5 38t19.5 63q0 53 -43 87t-108 34q-96 0 -166 -82t-70 -185z" />
<glyph unicode="&#x178;" horiz-adv-x="1196" d="M33 1458q0 58 11 80.5t38 22.5h250q21 0 31 -10t10 -35l-3 -53l-3 -70q0 -197 87 -366t156 -169q21 0 62 49.5t91 140t74 171.5q11 39 17 79.5t6 81.5v12v42q-3 29 -4 43l-4 49q0 19 9 27t28 8h211q29 0 44 -31q13 -33 13 -109q0 -133 -48.5 -257.5t-182.5 -305.5 q-167 -227 -228 -389t-61 -340l3 -61l3 -35q0 -17 -12 -26q-14 -7 -43 -7h-217q-34 0 -48 24t-14 85q0 123 65.5 271.5t67.5 166.5q0 33 -97 140.5t-163 215.5q-73 125 -111 266t-38 289zM337 1866q0 51 34.5 86t84.5 35q49 0 84 -35.5t35 -85.5q0 -49 -35 -84t-84 -35 t-84 34.5t-35 84.5zM780 1866q0 51 33.5 86t85.5 35q47 0 82.5 -35.5t35.5 -85.5q0 -49 -35 -84q-33 -35 -83 -35t-85 34q-34 36 -34 85z" />
<glyph unicode="&#x2c6;" d="M213 1337l6 12l15 20l198 230l9 12q18 23 59 23h65q41 0 64 -27l10 -12l192 -227l15 -21l6 -12q0 -7 -33.5 -13.5t-87.5 -6.5q-20 0 -34.5 6t-30.5 25l-134 157l-133 -157q-12 -18 -27.5 -24.5t-49.5 -6.5q-46 0 -77 6t-32 16z" />
<glyph unicode="&#x2dc;" d="M158 1376q0 96 59 158.5t154 62.5q78 0 195 -42t157 -42q66 0 93 49t32 50h39q8 0 13 -6q4 -3 5 -17q0 -97 -59 -159t-154 -62q-78 0 -195 43t-155 43q-65 0 -93.5 -48.5t-33.5 -49.5h-37q-11 0 -16 5z" />
<glyph unicode="&#x2000;" horiz-adv-x="1011" />
<glyph unicode="&#x2001;" horiz-adv-x="2023" />
<glyph unicode="&#x2002;" horiz-adv-x="1011" />
<glyph unicode="&#x2003;" horiz-adv-x="2023" />
<glyph unicode="&#x2004;" horiz-adv-x="674" />
<glyph unicode="&#x2005;" horiz-adv-x="505" />
<glyph unicode="&#x2006;" horiz-adv-x="337" />
<glyph unicode="&#x2007;" horiz-adv-x="337" />
<glyph unicode="&#x2008;" horiz-adv-x="252" />
<glyph unicode="&#x2009;" horiz-adv-x="404" />
<glyph unicode="&#x200a;" horiz-adv-x="112" />
<glyph unicode="&#x2010;" horiz-adv-x="680" d="M70 504q0 33 17 86.5t42 95.5q12 17 26 26q16 7 38 7h348q29 0 41 -6q10 -7 10 -27q0 -41 -19 -104t-38 -88q-10 -15 -24 -21q-8 -2 -17 -3t-29 -1h-342q-32 0 -42.5 6.5t-10.5 28.5z" />
<glyph unicode="&#x2011;" horiz-adv-x="680" d="M70 504q0 33 17 86.5t42 95.5q12 17 26 26q16 7 38 7h348q29 0 41 -6q10 -7 10 -27q0 -41 -19 -104t-38 -88q-10 -15 -24 -21q-8 -2 -17 -3t-29 -1h-342q-32 0 -42.5 6.5t-10.5 28.5z" />
<glyph unicode="&#x2012;" horiz-adv-x="680" d="M70 504q0 33 17 86.5t42 95.5q12 17 26 26q16 7 38 7h348q29 0 41 -6q10 -7 10 -27q0 -41 -19 -104t-38 -88q-10 -15 -24 -21q-8 -2 -17 -3t-29 -1h-342q-32 0 -42.5 6.5t-10.5 28.5z" />
<glyph unicode="&#x2013;" d="M0 500v190h1038v-190h-1038z" />
<glyph unicode="&#x2014;" horiz-adv-x="2048" d="M0 500v190h2048v-190h-2048z" />
<glyph unicode="&#x2018;" horiz-adv-x="563" d="M57 1292q0 119 108.5 211t235.5 92l3 -1l2 -3q-1 -4 -2.5 -7.5t-8.5 -13.5q-41 -64 -41 -132q0 -102 140 -157q9 -3 18 -9q2 -1 6 -4l-4 -5l-4 -3l-234 -185l-22 -13l-18 -5q-63 0 -121 68t-58 167z" />
<glyph unicode="&#x2019;" horiz-adv-x="563" d="M27 1382l2 2l6 5l233 186l22 13l19 5q61 0 119.5 -69t58.5 -168q0 -119 -108.5 -211t-235.5 -92l-3 1l-1 3q1 4 3 8.5t8 13.5q40 66 40 133q0 102 -139 157q-9 3 -18 9q-2 1 -6 4z" />
<glyph unicode="&#x201a;" horiz-adv-x="563" d="M18 174l4 4l5 4l233 187l21 11l20 5q62 0 120 -67.5t58 -167.5q0 -119 -108.5 -211.5t-235.5 -92.5l-3 2q-1 8 10 25q40 66 40 133q0 101 -139 155q-24 9 -25 13z" />
<glyph unicode="&#x201c;" horiz-adv-x="1085" d="M61 1292q0 119 108.5 211t236.5 92l4 -4q-1 -4 -2.5 -7.5t-8.5 -13.5q-41 -64 -41 -132q0 -102 140 -157q9 -3 18 -9q2 -1 6 -4l-3 -5l-5 -3l-233 -185l-23 -13l-18 -5q-63 0 -121 68t-58 167zM575 1292q0 119 108.5 211t236.5 92l4 -4q-1 -4 -2.5 -7.5t-8.5 -13.5 q-41 -64 -41 -132q0 -102 140 -157q9 -3 18 -9q2 -1 6 -4l-3 -5l-5 -3l-236 -185l-21 -13l-17 -5q-63 0 -121 68t-58 167z" />
<glyph unicode="&#x201d;" horiz-adv-x="1085" d="M39 1382l2 3l4 4l236 186l22 13l16 5q61 0 120 -68.5t59 -168.5q0 -119 -109 -211t-235 -92l-3 1l-1 3q1 4 2.5 8t7.5 14q41 65 41 133q0 101 -138 157q-9 3 -18 9q-2 1 -6 4zM551 1382l3 3l5 4l234 186l22 13l19 5q59 0 118.5 -68.5t59.5 -168.5q0 -119 -109 -211 t-235 -92l-3 1l-1 3q1 4 2.5 8t7.5 14q41 65 41 133q0 102 -139 157q-24 9 -25 13z" />
<glyph unicode="&#x201e;" horiz-adv-x="1085" d="M33 174l6 8l235 187l21 11l18 5q63 0 121 -67.5t58 -167.5q0 -119 -109 -211.5t-236 -92.5l-3 2q-1 7 11 25q42 65 42 133q0 101 -139 155q-24 9 -25 13zM549 174l6 8l236 187l20 11l18 5q63 0 121 -67.5t58 -167.5q0 -119 -109 -211.5t-235 -92.5l-4 2q-1 8 11 26 q40 65 40 132q0 101 -138 155q-9 3 -18 9q-2 1 -6 4z" />
<glyph unicode="&#x2022;" horiz-adv-x="1208" d="M307 762q0 122 87.5 208.5t209.5 86.5q121 0 208 -86.5t87 -208.5t-87.5 -209.5t-209.5 -87.5t-208.5 87.5t-86.5 209.5z" />
<glyph unicode="&#x2026;" horiz-adv-x="2048" d="M129 174q0 90 62 152.5t151 62.5q87 0 150 -62.5t63 -152.5q0 -87 -63 -150t-150 -63q-90 0 -151.5 61t-61.5 152zM811 174q0 90 62 152.5t151 62.5q87 0 150 -62.5t63 -152.5q0 -87 -63 -150t-150 -63q-90 0 -151.5 61t-61.5 152zM1495 174q0 90 62 152.5t151 62.5 q87 0 150 -62.5t63 -152.5q0 -87 -63 -150t-150 -63q-90 0 -151.5 61t-61.5 152z" />
<glyph unicode="&#x202f;" horiz-adv-x="404" />
<glyph unicode="&#x2039;" horiz-adv-x="563" d="M63 596l3 14l10 17l241 360q6 10 14 16.5t15 6.5t15 -3.5t15 -10.5l98 -77q13 -10 18.5 -16.5t5.5 -13.5q0 -6 -3.5 -12t-15.5 -17l-235 -260l233 -282l9 -14l3 -9q0 -7 -5 -13l-15 -16l-90 -71l-21 -14l-12 -3q-5 0 -14 6l-14 16l-242 359l-10 18z" />
<glyph unicode="&#x203a;" horiz-adv-x="563" d="M74 299l3 13l13 16l236 260l-234 282l-9 14l-3 11l5 11l15 16l90 71l21 13l12 4q6 0 14 -7l15 -16l242 -359l9 -18l3 -18l-3 -14l-9 -16l-240 -361q-5 -9 -14 -16t-17 -7l-14 3l-17 12l-96 75l-17 16q-3 5 -5 15z" />
<glyph unicode="&#x205f;" horiz-adv-x="505" />
<glyph unicode="&#x2122;" horiz-adv-x="1706" d="M225 1366v94h467v-94h-168v-448h-129v448h-170zM809 918v542h170l141 -360l133 360h170v-542h-114v428l-160 -428h-59l-166 428v-428h-115z" />
<glyph unicode="&#xe000;" horiz-adv-x="1190" d="M0 0v1190h1190v-1190h-1190z" />
</font>
</defs>
</svg>
